<svg width="14" height="14" viewBox="0 0 14 14" fill="none" xmlns="http://www.w3.org/2000/svg">
<path d="M11.2 0L11.3397 0.00341802C12.8212 0.076271 14 1.3005 14 2.79994V8.39997L13.9966 8.53972C13.9237 10.0212 12.6995 11.2 11.2 11.2L11.1966 11.3397C11.1238 12.8212 9.89954 14 8.40009 14H2.80003L2.66028 13.9966C1.17881 13.9237 0 12.6995 0 11.2001V5.60003L0.00341801 5.46028C0.0762714 3.97882 1.30051 2.80001 2.79995 2.80001L2.80337 2.66027C2.87622 1.17881 4.10046 0 5.5999 0L11.2 0ZM2.79987 4.20003L2.69538 4.20384C1.97094 4.25735 1.39986 4.86194 1.39986 5.60004V11.2001L1.40367 11.3046C1.45718 12.029 2.06178 12.6001 2.79989 12.6001H8.39995L8.50445 12.5963C9.22888 12.5428 9.79996 11.9382 9.79996 11.2001H5.59991L5.46017 11.1966C3.9787 11.1238 2.79988 9.89956 2.79988 8.40013L2.79987 4.20003ZM11.2 1.40001H5.5999L5.49541 1.40382C4.77098 1.45733 4.19989 2.06192 4.19989 2.80003V8.40006L4.2037 8.50456C4.25722 9.22899 4.86181 9.80007 5.59992 9.80007H11.2C11.9732 9.80007 12.6 9.17331 12.6 8.40005V2.80002L12.5962 2.69553C12.5427 1.9711 11.9381 1.40001 11.2 1.40001ZM10.5 2.80002C10.7555 2.80002 10.9588 2.92668 11.0795 3.10657C11.0854 3.11595 11.0915 3.12532 11.0973 3.13489C11.1186 3.16985 11.1367 3.20647 11.1516 3.24446C11.1566 3.25657 11.161 3.26878 11.1651 3.28108C11.1927 3.36448 11.2052 3.45344 11.2004 3.54251L11.2 6.30003C11.2 6.68665 10.8866 7.00003 10.5 7.00003C10.141 7.00003 9.84509 6.7298 9.80466 6.38168L9.79998 6.30004V5.18988L7.49497 7.49507C7.22152 7.76842 6.77836 7.76842 6.50491 7.49507C6.25266 7.24272 6.23323 6.84564 6.44671 6.57104L6.50491 6.50502L8.80874 4.20003H7.69992C7.34095 4.20003 7.04504 3.92981 7.00462 3.58168L6.99993 3.50004C6.99993 3.14106 7.27016 2.84516 7.61829 2.80473L7.69993 2.80005L10.5 2.80002Z" fill="black"/>
</svg>
