<svg width="36" height="31" viewBox="0 0 36 31" fill="none" xmlns="http://www.w3.org/2000/svg">
<path d="M24.5947 18.3439C22.8453 20.0614 20.4781 21.0024 18.0269 20.9541H15.9971C15.7704 20.9394 15.5496 21.0302 15.3991 21.2005C13.876 22.8046 12.3387 24.3981 10.8258 25.9954V25.9951C10.5397 26.3325 10.1213 26.5291 9.6789 26.5335C9.30959 26.5328 8.95598 26.3828 8.69861 26.118C8.44095 25.8533 8.30108 25.4958 8.31065 25.1262V21.1404C8.31065 20.8872 8.24023 20.7885 7.98355 20.7394C4.23357 19.7755 1.94677 17.3305 0.83538 13.7037V13.704C0.657477 13.0186 0.515393 12.3246 0.409637 11.6248V9.69698C0.477363 9.08327 0.595148 8.47616 0.761524 7.88164C1.6795 4.54683 3.6566 2.12999 6.94945 0.874179C7.89588 0.523278 8.89853 0.34807 9.90784 0.357147H17.862C21.5627 0.339479 24.3311 1.98579 26.2307 5.07102C27.48 7.14819 27.9978 9.58394 27.7011 11.9893C27.4046 14.3951 26.3112 16.632 24.595 18.344L24.5947 18.3439Z" fill="white"/>
<path d="M32.9627 13.1658C31.9856 12.2868 30.7793 11.7025 29.4836 11.4807C29.4836 11.5757 29.4591 11.6319 29.452 11.6846V11.6849C29.3347 13.3827 28.8549 15.0356 28.0449 16.5325C25.8708 20.4724 22.5748 22.6254 18.0052 22.6817H16.5594C16.1653 22.6817 15.9896 22.9842 16.1901 23.3113C17.3016 25.1264 18.8567 26.3683 20.9849 26.7376H20.9847C21.9053 26.8505 22.8329 26.8964 23.7603 26.8748C23.9764 26.8615 24.1867 26.9487 24.3303 27.1106C24.9494 27.7719 25.5828 28.4193 26.2087 29.0735C26.6906 29.5765 27.1691 30.0901 27.6651 30.586V30.5863C27.8749 30.827 28.1716 30.9747 28.4901 30.997C28.8086 31.0194 29.1229 30.9148 29.3644 30.7058C29.6594 30.4376 29.814 30.0481 29.783 29.6506V27.1459C29.783 26.8468 29.864 26.7413 30.1595 26.6289V26.6287C30.8887 26.396 31.5878 26.077 32.2418 25.6788C36.3859 22.8294 36.7483 16.5286 32.963 13.1659L32.9627 13.1658Z" fill="white"/>
</svg>
