<svg width="20" height="16" viewBox="0 0 20 16" fill="none" xmlns="http://www.w3.org/2000/svg">
<path d="M1.33252 2.87937C1.24018 2.88375 1.15319 2.92463 1.0909 2.99312C1.02861 3.06162 0.996009 3.15201 1.00039 3.24459C1.00465 3.33706 1.04553 3.42416 1.11402 3.48645C1.18239 3.54886 1.27279 3.58135 1.36525 3.57709H4.75755L6.77771 10.9896C6.81749 11.1436 6.9563 11.2513 7.11532 11.2512H14.2593C14.4132 11.2502 14.5482 11.1482 14.5915 11.0004L16.3339 5.25573C16.3645 5.15061 16.3445 5.03723 16.2791 4.94939C16.2138 4.86155 16.1111 4.80948 16.0019 4.80875L7.11528 4.7978C7.02197 4.79646 6.93194 4.83272 6.86552 4.89829C6.79909 4.96387 6.76174 5.05329 6.76174 5.14672C6.76174 5.24016 6.79909 5.32958 6.86552 5.39515C6.93194 5.46073 7.02185 5.49686 7.11516 5.49553L15.5333 5.50648L14.0032 10.5535H7.38179L5.36164 3.13541C5.31979 2.98346 5.18146 2.87847 5.02403 2.87919H1.36481C1.35386 2.87871 1.34347 2.87889 1.33252 2.87937ZM8.07359 12.7339C7.45216 12.7339 6.94094 13.2456 6.94094 13.8675C6.94094 14.4896 7.45216 15.0012 8.07359 15.0012C8.69503 15.0012 9.20624 14.4894 9.20624 13.8675C9.20624 13.2455 8.69503 12.7339 8.07359 12.7339ZM13.301 12.7339C12.6795 12.7339 12.1683 13.2456 12.1683 13.8675C12.1683 14.4896 12.6795 15.0012 13.301 15.0012C13.9224 15.0012 14.4336 14.4894 14.4336 13.8675C14.4336 13.2455 13.9224 12.7339 13.301 12.7339ZM8.07359 13.4315C8.31825 13.4315 8.50925 13.6226 8.50925 13.8675C8.50925 14.1124 8.31836 14.3036 8.07359 14.3036C7.82893 14.3036 7.63794 14.1124 7.63794 13.8675C7.63794 13.6226 7.82882 13.4315 8.07359 13.4315ZM13.301 13.4315C13.5456 13.4315 13.7366 13.6226 13.7366 13.8675C13.7366 14.1124 13.5457 14.3036 13.301 14.3036C13.0563 14.3036 12.8653 14.1124 12.8653 13.8675C12.8653 13.6226 13.0562 13.4315 13.301 13.4315Z" fill="white" stroke="white" stroke-width="0.3"/>
<path d="M18.7253 4.79626C18.7253 7.16901 16.8018 9.09251 14.4291 9.09251C12.0563 9.09251 10.1328 7.16901 10.1328 4.79626C10.1328 2.4235 12.0563 0.5 14.4291 0.5C16.8018 0.5 18.7253 2.4235 18.7253 4.79626Z" fill="white" stroke="#4AAC32"/>
<path d="M13.8853 7.19469V2.39844H14.9735V7.19469H13.8853ZM12.0312 5.34065V4.25248H16.8275V5.34065H12.0312Z" fill="#4AAC32"/>
</svg>
