<svg width="13" height="13" xmlns="http://www.w3.org/2000/svg" fill="none" viewBox="4.55 4.56 10.25 10.25"><path fill-rule="evenodd" clip-rule="evenodd" d="M11.6935 4.75505L14.3151 4.75505C14.4759 4.75505 14.6064 4.88546 14.6064 5.04634L14.6064 7.66792C14.6064 7.8288 14.4759 7.95921 14.3151 7.95921C14.1542 7.95921 14.0238 7.8288 14.0238 7.66792L14.0238 5.74957L11.4315 8.34187L11.0195 7.92993L13.6118 5.33763L11.6935 5.33762C11.5326 5.33762 11.4022 5.20721 11.4022 5.04634C11.4022 4.88546 11.5326 4.75505 11.6935 4.75505Z" fill="black" stroke="black" stroke-width="0.4"></path><path fill-rule="evenodd" clip-rule="evenodd" d="M7.66784 14.6063L5.04626 14.6063C4.88539 14.6063 4.75497 14.4759 4.75497 14.3151L4.75497 11.6935C4.75497 11.5326 4.88539 11.4022 5.04626 11.4022C5.20713 11.4022 5.33755 11.5326 5.33755 11.6935L5.33755 13.6118L7.92985 11.0195L8.3418 11.4315L5.74949 14.0238L7.66784 14.0238C7.82872 14.0238 7.95913 14.1542 7.95913 14.3151C7.95913 14.4759 7.82872 14.6063 7.66784 14.6063Z" fill="black" stroke="black" stroke-width="0.4"></path><path fill-rule="evenodd" clip-rule="evenodd" d="M4.75517 7.6679L4.75517 5.04632C4.75517 4.88545 4.88559 4.75503 5.04646 4.75503L7.66804 4.75503C7.82892 4.75503 7.95933 4.88545 7.95933 5.04632C7.95933 5.20719 7.82892 5.33761 7.66804 5.33761L5.74969 5.33761L8.342 7.92992L7.93005 8.34186L5.33775 5.74955L5.33775 7.6679C5.33775 7.82878 5.20733 7.95919 5.04646 7.95919C4.88559 7.95919 4.75517 7.82878 4.75517 7.6679Z" fill="black" stroke="black" stroke-width="0.4"></path><path fill-rule="evenodd" clip-rule="evenodd" d="M14.6064 11.6934L14.6064 14.3149C14.6064 14.4758 14.476 14.6062 14.3151 14.6062L11.6935 14.6062C11.5327 14.6062 11.4022 14.4758 11.4022 14.3149C11.4022 14.1541 11.5327 14.0237 11.6935 14.0237L13.6119 14.0237L11.0196 11.4314L11.4315 11.0194L14.0238 13.6117L14.0238 11.6934C14.0238 11.5325 14.1542 11.4021 14.3151 11.4021C14.476 11.4021 14.6064 11.5325 14.6064 11.6934Z" fill="black" stroke="black" stroke-width="0.4"></path></svg>