<svg width="20" height="14" viewBox="0 0 20 14" fill="none" xmlns="http://www.w3.org/2000/svg">
<path d="M2.12906 0.183467L7.76814 4.48102C7.79473 4.49668 7.82086 4.51399 7.84609 4.53278C7.87796 4.5562 7.90772 4.5814 7.93536 4.6081L18.2019 12.4327C18.5901 12.7277 18.6613 13.2766 18.3623 13.6599C18.1874 13.8849 17.9249 14 17.6606 14C17.471 14 17.2796 13.9406 17.1194 13.8183L15.0967 12.277C13.4714 13.2997 11.5925 13.838 9.62502 13.838C5.36767 13.838 1.61498 11.2863 0.0603879 7.33805C-0.0198246 7.13655 -0.0198246 6.91162 0.0585752 6.70997C0.628207 5.23601 1.55497 3.89604 2.71979 2.84389L1.04636 1.56864C0.658138 1.27346 0.587137 0.724589 0.886088 0.341379C1.18489 -0.0437404 1.7444 -0.112204 2.12903 0.182978L2.12906 0.183467ZM1.84476 7.01985C3.20248 10.1115 6.2189 12.0891 9.62509 12.0891C11.0321 12.0891 12.3806 11.7586 13.585 11.1251L12.0068 9.92248C11.3308 10.4521 10.4974 10.7449 9.62501 10.7449C7.52178 10.7449 5.81223 9.075 5.81223 7.02172C5.81223 6.48134 5.929 5.95334 6.15377 5.46184L4.14966 3.9342C3.164 4.75739 2.36308 5.82787 1.84465 7.01977L1.84476 7.01985ZM9.62702 0.16552C13.8917 0.16552 17.6459 2.73351 19.1916 6.70865C19.27 6.91209 19.27 7.13703 19.188 7.34032C18.8691 8.15008 18.4135 8.95445 17.8759 9.66176C17.7026 9.89206 17.4348 10.0126 17.1668 10.0126C16.981 10.0126 16.7951 9.955 16.6364 9.83806C16.2446 9.54841 16.1645 8.99952 16.4597 8.6144C16.8333 8.12309 17.1559 7.57615 17.4056 7.01814C16.0533 3.90679 13.0369 1.91452 9.62725 1.91452C8.81078 1.91452 8.02342 2.02609 7.28522 2.24386C6.81332 2.386 6.32296 2.11976 6.18262 1.65724C6.04229 1.19473 6.30845 0.707123 6.77673 0.568555C7.67886 0.302164 8.63946 0.165375 9.62725 0.165375L9.62702 0.16552ZM7.58392 7.02175C7.58392 8.11044 8.49889 8.9958 9.6252 8.9958C9.93956 8.9958 10.2447 8.92436 10.5219 8.79057L7.63184 6.58784C7.60178 6.72222 7.58395 6.86705 7.58395 7.02172L7.58392 7.02175ZM9.97143 3.26247C11.3366 3.41729 12.5084 4.23959 13.1026 5.46146C13.314 5.89698 13.128 6.42067 12.6871 6.62934C12.563 6.68885 12.4337 6.71585 12.3043 6.71585C11.9744 6.71585 11.6591 6.53403 11.5042 6.21916C11.1761 5.54243 10.5273 5.08721 9.77098 5.00088C9.28441 4.94688 8.93621 4.51136 8.9909 4.03273C9.04739 3.55216 9.50298 3.21209 9.97141 3.26249L9.97143 3.26247Z" fill="#5D24FF"/>
</svg>
