<svg width="15" height="15" viewBox="0 0 15 15" fill="none" xmlns="http://www.w3.org/2000/svg">
<path opacity="0.4" d="M8.25 1.01786e-07V1.5H2.25C1.83576 1.5 1.5 1.83576 1.5 2.25V12.75C1.5 13.1642 1.83576 13.5 2.25 13.5H12.75C13.1642 13.5 13.5 13.1642 13.5 12.75V6.75H15V12.75C15 13.9926 13.9926 15 12.75 15H2.25C1.00738 15 0 13.9926 0 12.75V2.25C0 1.00738 1.00738 1.01786e-07 2.25 1.01786e-07H8.25ZM14.25 1.01786e-07L14.2645 0.000104732C14.282 0.000523259 14.2995 0.00146494 14.317 0.00292982L14.25 0C14.288 0 14.3252 0.00282509 14.3617 0.0082658C14.3745 0.0102538 14.3875 0.0125558 14.4006 0.0151714C14.4171 0.0185196 14.4333 0.022391 14.4494 0.0267854C14.4611 0.0300289 14.4727 0.0335866 14.4841 0.0373532C14.4988 0.0420616 14.5137 0.0475026 14.5283 0.053362C14.5416 0.0586982 14.5546 0.0642437 14.5674 0.0702078C14.5829 0.0775321 14.5982 0.0853795 14.6132 0.0936453C14.6223 0.0986676 14.6315 0.104004 14.6405 0.109445C14.6597 0.121268 14.6784 0.133824 14.6964 0.147218C14.7258 0.168981 14.7538 0.19315 14.7804 0.219622L14.7126 0.159563C14.7599 0.196707 14.8027 0.239398 14.8398 0.286691C14.8441 0.292132 14.8485 0.297782 14.8528 0.303537C14.8662 0.321638 14.8787 0.340263 14.8904 0.359514C14.896 0.368512 14.9013 0.37772 14.9065 0.386926C14.9146 0.401784 14.9225 0.41706 14.9298 0.432649C14.9358 0.445414 14.9413 0.458389 14.9465 0.471467C14.9525 0.486325 14.9579 0.501183 14.9629 0.516146C14.9664 0.527341 14.97 0.538851 14.9731 0.550464C14.9776 0.566682 14.9815 0.582898 14.9848 0.599431C14.9874 0.612509 14.9897 0.625484 14.9917 0.638666C14.994 0.653628 14.9958 0.669114 14.9972 0.684706C14.9984 0.698831 14.9992 0.712327 14.9996 0.725827C14.9999 0.73336 15 0.741626 15 0.749997V4.5H13.5V2.56055L8.03035 8.03046C7.75998 8.30073 7.33454 8.32154 7.04032 8.09282L6.96959 8.03046C6.67672 7.73748 6.67672 7.26268 6.96959 6.96969L12.4379 1.50005H10.4999V5.03571e-05L14.25 1.01786e-07Z" fill="black"/>
</svg>
