<svg width="18" height="18" viewBox="0 0 18 18" fill="none" xmlns="http://www.w3.org/2000/svg">
<path d="M9 2.11996C10.8246 2.11996 12.5745 2.84484 13.8648 4.13512C15.1551 5.42528 15.88 7.17538 15.88 8.99994C15.88 10.8245 15.1551 12.5745 13.8648 13.8648C12.5747 15.155 10.8246 15.8799 9 15.8799C7.17544 15.8799 5.42545 15.155 4.13518 13.8648C2.8449 12.5746 2.12002 10.8245 2.12002 8.99994C2.12002 7.17538 2.8449 5.4254 4.13518 4.13512C5.42534 2.84484 7.17544 2.11996 9 2.11996V2.11996ZM9 1C6.87824 1 4.84346 1.84285 3.34318 3.34318C1.84285 4.8434 1 6.8783 1 9C1 11.1217 1.84285 13.1565 3.34318 14.6568C4.8434 16.1571 6.8783 17 9 17C11.1217 17 13.1565 16.1571 14.6568 14.6568C16.1571 13.1566 17 11.1217 17 9C17 6.8783 16.1571 4.84346 14.6568 3.34318C13.1566 1.84285 11.1217 1 9 1V1Z" fill="#1F76BB" stroke="#1F76BB" stroke-width="0.3"/>
<path d="M9.1268 5C9.4114 5.02969 9.694 5.07623 9.97311 5.13917C10.8259 5.3808 11.3332 6.06237 11.3971 6.96796C11.4599 7.55858 11.2032 8.13781 10.7236 8.48792C10.4963 8.66392 10.2579 8.82397 10.0291 8.99674C9.69174 9.21784 9.49777 9.602 9.52031 10.0048C9.526 10.1476 9.48371 10.2881 9.40022 10.4042C9.31674 10.5202 9.19677 10.6049 9.05948 10.6447C8.91339 10.701 8.7528 10.7071 8.6028 10.6622C8.4528 10.6174 8.322 10.5239 8.23072 10.3967C8.17101 10.2965 8.13842 10.1823 8.13641 10.0656C8.11331 9.33121 8.45461 8.63287 9.04835 8.19996C9.30515 8.00454 9.54746 7.79059 9.77311 7.56002C9.8807 7.43324 9.94621 7.27609 9.96039 7.11037C9.99722 6.65757 9.70604 6.3664 9.23719 6.33594C8.6708 6.29911 8.194 6.44632 7.8612 6.94711V6.94722C7.79178 7.0653 7.68777 7.15916 7.56343 7.21642C7.43899 7.27367 7.29993 7.29131 7.16521 7.2672C6.68518 7.18718 6.47884 6.79677 6.67558 6.34723C6.88161 5.90906 7.23572 5.55772 7.67558 5.35527C8.1278 5.13295 8.623 5.01176 9.1268 5.00001L9.1268 5Z" fill="#1F76BB" stroke="#1F76BB" stroke-width="0.3"/>
<path d="M9.60506 12.1797C9.60829 12.6933 9.32023 12.9989 8.81623 12.9989C8.31223 12.9989 7.9763 12.7044 7.97461 12.2741C7.97461 11.6773 8.2418 11.3797 8.7746 11.3637C9.20831 11.3509 9.65943 11.6165 9.60506 12.1797V12.1797Z" fill="#1F76BB" stroke="#1F76BB" stroke-width="0.3"/>
</svg>
