<svg width="44" height="48" viewBox="0 0 44 48" fill="none" xmlns="http://www.w3.org/2000/svg">
<path d="M42.9455 44.4262L38.2446 30.3128C38.0095 29.6073 37.5396 29.1367 37.0693 28.9014L25.5521 23.2561C30.4881 21.1389 33.7787 15.0233 33.7787 9.84839C33.7787 3.9678 29.3129 0.439453 22.0264 0.439453C14.7398 0.439453 10.274 3.9678 10.274 9.84839C10.274 15.0235 13.5646 21.1391 18.2655 23.2561L6.74825 28.9014C6.27802 29.1367 5.80814 29.6069 5.57301 30.3128L0.872083 44.4262C0.401856 45.8373 1.57709 47.484 3.22255 47.484H40.83C42.4755 47.484 43.6507 45.8372 42.9453 44.4262H42.9455ZM14.975 9.84839C14.975 8.67227 14.975 5.14392 22.0264 5.14392C29.0778 5.14392 29.0778 8.67227 29.0778 9.84839C29.0778 13.8474 25.5521 19.2573 22.0264 19.2573C18.5007 19.2573 14.975 13.8474 14.975 9.84839ZM6.51328 42.7797L9.80385 32.6651L22.0263 26.5492L34.2487 32.6651L37.5393 42.7797H6.51328Z" fill="url(#paint0_linear_383_239)" fill-opacity="0.27"/>
<defs>
<linearGradient id="paint0_linear_383_239" x1="21.9609" y1="0.439453" x2="21.9609" y2="47.484" gradientUnits="userSpaceOnUse">
<stop stop-color="#3B34EE"/>
<stop offset="1" stop-color="#EE34DB"/>
</linearGradient>
</defs>
</svg>
