<svg width="16" height="18" viewBox="0 0 16 18" fill="none" xmlns="http://www.w3.org/2000/svg">
<mask id="path-1-outside-1_1942_13719" maskUnits="userSpaceOnUse" x="0" y="0" width="16" height="18" fill="black">
<rect fill="white" width="16" height="18"/>
<path fill-rule="evenodd" clip-rule="evenodd" d="M7.99989 10.0669C7.42763 10.0669 6.96232 9.58856 6.96232 9.00027C6.96232 8.41198 7.42763 7.93364 7.99989 7.93364C8.57215 7.93364 9.03746 8.41198 9.03746 9.00027C9.03746 9.58856 8.57215 10.0669 7.99989 10.0669ZM7.99989 6.8669C6.85537 6.8669 5.92464 7.8237 5.92464 9.00027C5.92464 10.1768 6.85537 11.1336 7.99989 11.1336C9.14441 11.1336 10.0751 10.1768 10.0751 9.00027C10.0751 7.8237 9.14441 6.8669 7.99989 6.8669ZM13.8406 12.4669C13.5174 13.0424 12.5109 13.245 11.1604 13.0333C11.3824 12.1602 11.535 11.1746 11.5988 10.0999L10.5633 10.0337C10.3459 13.678 9.06342 15.9337 7.99992 15.9337C7.35448 15.9337 6.68008 15.1417 6.18306 13.8335C7.02922 13.594 7.93663 13.234 8.87356 12.754L8.41031 11.7999C5.23273 13.428 2.69189 13.4142 2.15938 12.467C1.83617 11.8915 2.16719 10.8946 3.0216 9.79709C3.64672 10.4318 4.40105 11.06 5.27425 11.6552L5.84704 10.7656C2.88681 8.74963 1.6275 6.48017 2.15946 5.5336C2.48267 4.95814 3.48864 4.75548 4.83965 4.96662C4.61764 5.84017 4.46509 6.82577 4.40128 7.90034L5.43679 7.96653C5.65414 4.32223 6.93664 2.0668 8.00014 2.0668C8.64599 2.0668 9.32053 2.85989 9.81797 4.16926C8.97126 4.40922 8.0644 4.76604 7.12638 5.24661L7.58964 6.20075C10.768 4.57252 13.3092 4.58635 13.8408 5.53355C14.164 6.10901 13.833 7.10587 12.9786 8.20341C12.3535 7.5687 11.5992 6.94047 10.726 6.34527L10.1532 7.2349C13.1134 9.25087 14.3727 11.5203 13.8408 12.4669H13.8406ZM13.6862 8.9889C14.9194 7.45553 15.3116 6.01775 14.7394 5.00004C14.1516 3.95303 12.7037 3.60215 10.8333 3.93172C10.1584 2.06832 9.14309 1 8.00013 1C6.82456 1 5.80503 2.11363 5.14717 3.94401C3.23954 3.61232 1.83202 3.9824 1.26087 5.00004C0.673104 6.04647 1.1016 7.51098 2.31409 9.01119C1.08088 10.5446 0.68864 11.9823 1.26087 13C1.70653 13.7941 2.64716 14.1883 3.89176 14.1883C4.28706 14.1883 4.71513 14.144 5.16546 14.0646C5.8403 15.9302 6.85616 17 8.00007 17C9.17616 17 10.1962 15.8848 10.8539 14.0534C11.3027 14.1308 11.7327 14.183 12.1213 14.183C13.3819 14.1824 14.3024 13.7776 14.7391 13.0001C15.3269 11.9537 14.8984 10.4891 13.6859 8.98893"/>
</mask>
<path fill-rule="evenodd" clip-rule="evenodd" d="M7.99989 10.0669C7.42763 10.0669 6.96232 9.58856 6.96232 9.00027C6.96232 8.41198 7.42763 7.93364 7.99989 7.93364C8.57215 7.93364 9.03746 8.41198 9.03746 9.00027C9.03746 9.58856 8.57215 10.0669 7.99989 10.0669ZM7.99989 6.8669C6.85537 6.8669 5.92464 7.8237 5.92464 9.00027C5.92464 10.1768 6.85537 11.1336 7.99989 11.1336C9.14441 11.1336 10.0751 10.1768 10.0751 9.00027C10.0751 7.8237 9.14441 6.8669 7.99989 6.8669ZM13.8406 12.4669C13.5174 13.0424 12.5109 13.245 11.1604 13.0333C11.3824 12.1602 11.535 11.1746 11.5988 10.0999L10.5633 10.0337C10.3459 13.678 9.06342 15.9337 7.99992 15.9337C7.35448 15.9337 6.68008 15.1417 6.18306 13.8335C7.02922 13.594 7.93663 13.234 8.87356 12.754L8.41031 11.7999C5.23273 13.428 2.69189 13.4142 2.15938 12.467C1.83617 11.8915 2.16719 10.8946 3.0216 9.79709C3.64672 10.4318 4.40105 11.06 5.27425 11.6552L5.84704 10.7656C2.88681 8.74963 1.6275 6.48017 2.15946 5.5336C2.48267 4.95814 3.48864 4.75548 4.83965 4.96662C4.61764 5.84017 4.46509 6.82577 4.40128 7.90034L5.43679 7.96653C5.65414 4.32223 6.93664 2.0668 8.00014 2.0668C8.64599 2.0668 9.32053 2.85989 9.81797 4.16926C8.97126 4.40922 8.0644 4.76604 7.12638 5.24661L7.58964 6.20075C10.768 4.57252 13.3092 4.58635 13.8408 5.53355C14.164 6.10901 13.833 7.10587 12.9786 8.20341C12.3535 7.5687 11.5992 6.94047 10.726 6.34527L10.1532 7.2349C13.1134 9.25087 14.3727 11.5203 13.8408 12.4669H13.8406ZM13.6862 8.9889C14.9194 7.45553 15.3116 6.01775 14.7394 5.00004C14.1516 3.95303 12.7037 3.60215 10.8333 3.93172C10.1584 2.06832 9.14309 1 8.00013 1C6.82456 1 5.80503 2.11363 5.14717 3.94401C3.23954 3.61232 1.83202 3.9824 1.26087 5.00004C0.673104 6.04647 1.1016 7.51098 2.31409 9.01119C1.08088 10.5446 0.68864 11.9823 1.26087 13C1.70653 13.7941 2.64716 14.1883 3.89176 14.1883C4.28706 14.1883 4.71513 14.144 5.16546 14.0646C5.8403 15.9302 6.85616 17 8.00007 17C9.17616 17 10.1962 15.8848 10.8539 14.0534C11.3027 14.1308 11.7327 14.183 12.1213 14.183C13.3819 14.1824 14.3024 13.7776 14.7391 13.0001C15.3269 11.9537 14.8984 10.4891 13.6859 8.98893" fill="white"/>
<path d="M13.8406 12.4669V12.2669H13.7235L13.6662 12.369L13.8406 12.4669ZM11.1604 13.0333L10.9666 12.984L10.9124 13.1969L11.1294 13.2309L11.1604 13.0333ZM11.5988 10.0999L11.7984 10.1117L11.8102 9.91298L11.6115 9.90028L11.5988 10.0999ZM10.5633 10.0337L10.576 9.8341L10.3756 9.82129L10.3636 10.0218L10.5633 10.0337ZM6.18306 13.8335L6.12859 13.641L5.91858 13.7005L5.9961 13.9045L6.18306 13.8335ZM8.87356 12.754L8.96476 12.932L9.13897 12.8427L9.05348 12.6667L8.87356 12.754ZM8.41031 11.7999L8.59022 11.7125L8.50097 11.5287L8.31911 11.6219L8.41031 11.7999ZM2.15938 12.467L1.985 12.5649L1.98504 12.565L2.15938 12.467ZM3.0216 9.79709L3.1641 9.65675L3.00397 9.49416L2.86378 9.67423L3.0216 9.79709ZM5.27425 11.6552L5.16161 11.8205L5.33126 11.9361L5.44241 11.7635L5.27425 11.6552ZM5.84704 10.7656L6.0152 10.8739L6.12071 10.71L5.95962 10.6003L5.84704 10.7656ZM2.15946 5.5336L2.33381 5.63158L2.33384 5.63154L2.15946 5.5336ZM4.83965 4.96662L5.03349 5.01589L5.08761 4.80295L4.87054 4.76902L4.83965 4.96662ZM4.40127 7.90034L4.20163 7.88849L4.18982 8.08724L4.38852 8.09994L4.40127 7.90034ZM5.43679 7.96653L5.42403 8.16612L5.62448 8.17893L5.63643 7.97843L5.43679 7.96653ZM9.81797 4.16926L9.8725 4.36169L10.0824 4.3022L10.0049 4.09823L9.81797 4.16926ZM7.12638 5.24661L7.03519 5.06861L6.86097 5.15787L6.94647 5.33396L7.12638 5.24661ZM7.58964 6.20075L7.40972 6.2881L7.49896 6.47192L7.68082 6.37876L7.58964 6.20075ZM13.8408 5.53355L13.6664 5.63145L13.6665 5.63149L13.8408 5.53355ZM12.9786 8.20341L12.8361 8.34375L12.9963 8.50634L13.1364 8.32627L12.9786 8.20341ZM10.726 6.34527L10.8386 6.18001L10.669 6.06436L10.5578 6.237L10.726 6.34527ZM10.1532 7.2349L9.98502 7.12663L9.87951 7.2905L10.0406 7.4002L10.1532 7.2349ZM13.8408 12.4669V12.6669H13.9578L14.0151 12.5649L13.8408 12.4669ZM14.7394 5.00004L14.565 5.09794L14.565 5.09806L14.7394 5.00004ZM10.8333 3.93172L10.6453 3.99983L10.7025 4.15785L10.8681 4.12868L10.8333 3.93172ZM5.14717 3.94401L5.11291 4.14105L5.27853 4.16985L5.33538 4.01165L5.14717 3.94401ZM1.26087 5.00004L1.43525 5.09798L1.43528 5.09792L1.26087 5.00004ZM2.31409 9.01119L2.46994 9.13653L2.57099 9.01088L2.46964 8.88547L2.31409 9.01119ZM1.26087 13L1.43528 12.9022L1.4352 12.902L1.26087 13ZM5.16546 14.0646L5.35353 13.9965L5.29633 13.8384L5.1307 13.8676L5.16546 14.0646ZM10.8539 14.0534L10.8878 13.8563L10.7224 13.8278L10.6656 13.9858L10.8539 14.0534ZM12.1213 14.183V14.383H12.1214L12.1213 14.183ZM14.7391 13.0001L14.9135 13.098V13.098L14.7391 13.0001ZM7.99989 9.8669C7.54326 9.8669 7.16232 9.48335 7.16232 9.00027H6.76232C6.76232 9.69377 7.312 10.2669 7.99989 10.2669V9.8669ZM7.16232 9.00027C7.16232 8.5172 7.54326 8.13364 7.99989 8.13364V7.73364C7.312 7.73364 6.76232 8.30677 6.76232 9.00027H7.16232ZM7.99989 8.13364C8.45652 8.13364 8.83746 8.5172 8.83746 9.00027H9.23746C9.23746 8.30677 8.68778 7.73364 7.99989 7.73364V8.13364ZM8.83746 9.00027C8.83746 9.48335 8.45652 9.8669 7.99989 9.8669V10.2669C8.68778 10.2669 9.23746 9.69377 9.23746 9.00027H8.83746ZM7.99989 6.6669C6.73974 6.6669 5.72464 7.71848 5.72464 9.00027H6.12464C6.12464 7.92891 6.971 7.0669 7.99989 7.0669V6.6669ZM5.72464 9.00027C5.72464 10.2821 6.73974 11.3336 7.99989 11.3336V10.9336C6.971 10.9336 6.12464 10.0716 6.12464 9.00027H5.72464ZM7.99989 11.3336C9.26003 11.3336 10.2751 10.2821 10.2751 9.00027H9.87514C9.87514 10.0716 9.02878 10.9336 7.99989 10.9336V11.3336ZM10.2751 9.00027C10.2751 7.71848 9.26003 6.6669 7.99989 6.6669V7.0669C9.02878 7.0669 9.87514 7.92891 9.87514 9.00027H10.2751ZM13.6662 12.369C13.5447 12.5853 13.278 12.7592 12.8449 12.8495C12.4153 12.9391 11.8518 12.9393 11.1914 12.8357L11.1294 13.2309C11.8194 13.3391 12.4345 13.3437 12.9266 13.2411C13.4151 13.1392 13.8133 12.924 14.015 12.5648L13.6662 12.369ZM11.3542 13.0826C11.5797 12.1961 11.7339 11.1978 11.7984 10.1117L11.3991 10.088C11.336 11.1513 11.1852 12.1243 10.9666 12.984L11.3542 13.0826ZM11.6115 9.90028L10.576 9.8341L10.5505 10.2333L11.586 10.2995L11.6115 9.90028ZM10.3636 10.0218C10.2561 11.8251 9.88538 13.2739 9.418 14.265C9.18407 14.7611 8.92952 15.1349 8.67837 15.3816C8.42546 15.6301 8.19345 15.7337 7.99992 15.7337V16.1337C8.33814 16.1337 8.66525 15.9553 8.95871 15.667C9.25393 15.3769 9.53299 14.959 9.77979 14.4356C10.2739 13.3878 10.6531 11.8866 10.7629 10.0456L10.3636 10.0218ZM7.99992 15.7337C7.76144 15.7337 7.48192 15.5856 7.18737 15.2437C6.89609 14.9055 6.61348 14.4033 6.37002 13.7624L5.9961 13.9045C6.24966 14.5719 6.55276 15.1198 6.8843 15.5047C7.21256 15.8858 7.59295 16.1337 7.99992 16.1337V15.7337ZM6.23753 14.0259C7.09785 13.7824 8.01754 13.4173 8.96476 12.932L8.78237 12.576C7.85572 13.0508 6.96058 13.4055 6.12859 13.641L6.23753 14.0259ZM9.05348 12.6667L8.59022 11.7125L8.23039 11.8872L8.69365 12.8414L9.05348 12.6667ZM8.31911 11.6219C6.74793 12.4269 5.34433 12.8205 4.27812 12.8997C3.74454 12.9394 3.30379 12.8997 2.97148 12.7997C2.63771 12.6994 2.43262 12.5449 2.33372 12.3689L1.98504 12.565C2.1524 12.8626 2.4646 13.065 2.85631 13.1828C3.24948 13.301 3.74238 13.3406 4.30776 13.2986C5.4395 13.2145 6.89511 12.8009 8.50151 11.9779L8.31911 11.6219ZM2.33376 12.369C2.21136 12.1511 2.19795 11.8233 2.33907 11.3897C2.4788 10.9603 2.76117 10.4572 3.17942 9.91995L2.86378 9.67423C2.42763 10.2345 2.11728 10.7786 1.9587 11.2659C1.80151 11.749 1.78419 12.2074 1.985 12.5649L2.33376 12.369ZM2.87911 9.93743C3.51421 10.5823 4.27875 11.2187 5.16161 11.8205L5.3869 11.49C4.52336 10.9014 3.77923 10.2813 3.1641 9.65675L2.87911 9.93743ZM5.44241 11.7635L6.0152 10.8739L5.67888 10.6573L5.10609 11.547L5.44241 11.7635ZM5.95962 10.6003C4.49587 9.60346 3.46155 8.54969 2.86064 7.63847C2.55993 7.18247 2.37207 6.76871 2.28954 6.42078C2.20649 6.07061 2.23453 5.80826 2.33381 5.63158L1.98511 5.43561C1.81842 5.73222 1.80438 6.10851 1.90034 6.51309C1.99683 6.91992 2.20907 7.377 2.52671 7.85868C3.16252 8.82283 4.23798 9.91178 5.73446 10.9309L5.95962 10.6003ZM2.33384 5.63154C2.45536 5.41516 2.72192 5.24134 3.155 5.15091C3.58457 5.06122 4.148 5.06096 4.80877 5.16423L4.87054 4.76902C4.18029 4.66115 3.56522 4.65664 3.07325 4.75936C2.5848 4.86134 2.18676 5.07657 1.98508 5.43566L2.33384 5.63154ZM4.64582 4.91736C4.4204 5.80429 4.26612 6.80251 4.20163 7.88849L4.60092 7.9122C4.66406 6.84903 4.81488 5.87605 5.03349 5.01589L4.64582 4.91736ZM4.38852 8.09994L5.42403 8.16612L5.44954 7.76693L4.41403 7.70075L4.38852 8.09994ZM5.63643 7.97843C5.74398 6.17517 6.11468 4.72643 6.58205 3.73536C6.81598 3.23932 7.07053 2.86557 7.32168 2.61882C7.57458 2.37036 7.8066 2.2668 8.00014 2.2668V1.8668C7.66193 1.8668 7.33482 2.04517 7.04135 2.33349C6.74614 2.62352 6.46707 3.0414 6.22026 3.56475C5.72617 4.61247 5.34694 6.1136 5.23714 7.95462L5.63643 7.97843ZM8.00014 2.2668C8.23875 2.2668 8.51841 2.41509 8.81313 2.75749C9.10457 3.09607 9.38733 3.59887 9.63101 4.24029L10.0049 4.09823C9.75117 3.43029 9.44795 2.88185 9.11629 2.49654C8.78792 2.11506 8.40738 1.8668 8.00014 1.8668V2.2668ZM9.76344 3.97684C8.90294 4.2207 7.98383 4.58259 7.03519 5.06861L7.21758 5.42461C8.14496 4.94948 9.03957 4.59773 9.8725 4.36169L9.76344 3.97684ZM6.94647 5.33396L7.40972 6.2881L7.76955 6.1134L7.3063 5.15926L6.94647 5.33396ZM7.68082 6.37876C9.25242 5.57366 10.6563 5.18005 11.7226 5.10081C12.2562 5.06116 12.6969 5.10086 13.0292 5.20076C13.3628 5.3011 13.5677 5.45561 13.6664 5.63145L14.0152 5.43566C13.8481 5.13789 13.536 4.93547 13.1443 4.8177C12.7513 4.69949 12.2584 4.6599 11.6929 4.70191C10.5611 4.78602 9.10526 5.19962 7.49845 6.02275L7.68082 6.37876ZM13.6665 5.63149C13.7889 5.84942 13.8023 6.17718 13.6612 6.61081C13.5214 7.04019 13.2391 7.54329 12.8208 8.08056L13.1364 8.32627C13.5726 7.76599 13.8829 7.22189 14.0415 6.73459C14.1987 6.25154 14.216 5.79314 14.0152 5.43561L13.6665 5.63149ZM13.1211 8.06307C12.486 7.41822 11.7215 6.78179 10.8386 6.18001L10.6133 6.51053C11.4769 7.09914 12.221 7.71918 12.8361 8.34375L13.1211 8.06307ZM10.5578 6.237L9.98502 7.12663L10.3213 7.34317L10.8941 6.45354L10.5578 6.237ZM10.0406 7.4002C11.5044 8.39705 12.5387 9.45081 13.1396 10.362C13.4403 10.818 13.6282 11.2318 13.7107 11.5797C13.7937 11.9299 13.7657 12.1922 13.6664 12.3689L14.0151 12.5649C14.1818 12.2683 14.1958 11.892 14.0999 11.4874C14.0034 11.0806 13.7912 10.6235 13.4735 10.1418C12.8377 9.17768 11.7622 8.08872 10.2658 7.06959L10.0406 7.4002ZM13.8408 12.2669H13.8406V12.6669H13.8408V12.2669ZM13.842 9.11424C15.0861 7.56739 15.5502 6.03406 14.9137 4.90201L14.565 5.09806C15.073 6.00145 14.7527 7.34366 13.5303 8.86356L13.842 9.11424ZM14.9138 4.90213C14.259 3.73582 12.6863 3.40212 10.7986 3.73475L10.8681 4.12868C12.721 3.80218 14.0442 4.17025 14.565 5.09794L14.9138 4.90213ZM11.0214 3.86361C10.678 2.91546 10.243 2.15501 9.73636 1.62842C9.22808 1.10012 8.63945 0.8 8.00013 0.8V1.2C8.50376 1.2 8.99427 1.43404 9.44811 1.90575C9.9036 2.37916 10.3138 3.08458 10.6453 3.99983L11.0214 3.86361ZM8.00013 0.8C7.34362 0.8 6.74567 1.11226 6.23483 1.64753C5.72546 2.18125 5.29383 2.94463 4.95896 3.87636L5.33538 4.01165C5.65837 3.11301 6.06544 2.40439 6.52419 1.92369C6.98147 1.44455 7.48107 1.2 8.00013 1.2V0.8ZM5.18143 3.74696C3.25541 3.41208 1.72414 3.76598 1.08646 4.90215L1.43528 5.09792C1.9399 4.19882 3.22367 3.81256 5.11291 4.14105L5.18143 3.74696ZM1.0865 4.90209C0.434116 6.06355 0.935748 7.62395 2.15854 9.1369L2.46964 8.88547C1.26746 7.39802 0.912092 6.02938 1.43525 5.09798L1.0865 4.90209ZM2.15824 8.88584C0.914194 10.4327 0.450027 11.966 1.08654 13.0981L1.4352 12.902C0.927254 11.9986 1.24757 10.6564 2.46994 9.13653L2.15824 8.88584ZM1.08646 13.0979C1.58288 13.9825 2.6129 14.3883 3.89176 14.3883V13.9883C2.68142 13.9883 1.83019 13.6058 1.43528 12.9022L1.08646 13.0979ZM3.89176 14.3883C4.3015 14.3883 4.74153 14.3425 5.20021 14.2615L5.1307 13.8676C4.68873 13.9456 4.27262 13.9883 3.89176 13.9883V14.3883ZM4.97738 14.1326C5.32075 15.0819 5.7558 15.8432 6.26269 16.3705C6.77121 16.8995 7.36023 17.2 8.00007 17.2V16.8C7.49601 16.8 7.00514 16.5656 6.55104 16.0933C6.09531 15.6192 5.685 14.9129 5.35353 13.9965L4.97738 14.1326ZM8.00007 17.2C8.6569 17.2 9.25511 16.8873 9.76609 16.3515C10.2756 15.8173 10.7073 15.0533 11.0421 14.121L10.6656 13.9858C10.3427 14.885 9.93557 15.5943 9.47663 16.0755C9.01917 16.5551 8.51933 16.8 8.00007 16.8V17.2ZM10.8199 14.2505C11.2736 14.3287 11.7163 14.383 12.1213 14.383V13.983C11.7491 13.983 11.3317 13.9328 10.8878 13.8563L10.8199 14.2505ZM12.1214 14.383C13.4179 14.3824 14.4266 13.9649 14.9135 13.098L14.5648 12.9021C14.1782 13.5903 13.3459 13.9825 12.1212 13.983L12.1214 14.383ZM14.9135 13.098C15.5659 11.9366 15.0643 10.3762 13.8415 8.86322L13.5304 9.11465C14.7325 10.6021 15.0879 11.9707 14.5648 12.9021L14.9135 13.098Z" fill="white" mask="url(#path-1-outside-1_1942_13719)"/>
</svg>
