<svg width="21" height="20" viewBox="0 0 21 20" fill="none" xmlns="http://www.w3.org/2000/svg">
<path d="M9.18748 17.114C9.18748 16.5785 8.97462 16.0648 8.59601 15.6862C8.21726 15.3074 7.70361 15.0947 7.168 15.0947C6.63259 15.0947 6.1189 15.3074 5.74015 15.6862C5.36139 16.0648 5.14868 16.5785 5.14868 17.114C5.14868 17.6496 5.36138 18.1633 5.74015 18.5419C6.1189 18.9207 6.63255 19.1334 7.168 19.1334C7.70357 19.1334 8.21726 18.9207 8.59601 18.5419C8.97461 18.1633 9.18748 17.6496 9.18748 17.114ZM6.06416 17.114C6.06416 16.8165 6.18233 16.5312 6.39283 16.3208C6.60318 16.1103 6.8885 15.9922 7.18603 15.9922C7.48357 15.9922 7.76888 16.1103 7.97939 16.3208C8.18974 16.5312 8.30791 16.8165 8.30791 17.114C8.30791 17.4116 8.18974 17.6969 7.97939 17.9074C7.76889 18.1178 7.48357 18.2359 7.18603 18.2359C6.88819 18.2365 6.60226 18.1185 6.39127 17.9082C6.18045 17.6977 6.06197 17.412 6.06197 17.1141L6.06416 17.114Z" fill="#6C6C6C" stroke="#6C6C6C" stroke-width="0.5"/>
<path d="M17.7068 17.114C17.7068 16.5785 17.4939 16.0648 17.1153 15.6862C16.7365 15.3074 16.2229 15.0947 15.6873 15.0947C15.1517 15.0947 14.6382 15.3074 14.2594 15.6862C13.8807 16.0648 13.668 16.5785 13.668 17.114C13.668 17.6496 13.8807 18.1633 14.2594 18.5419C14.6382 18.9207 15.1517 19.1334 15.6873 19.1334C16.2229 19.1334 16.7366 18.9207 17.1153 18.5419C17.4939 18.1633 17.7068 17.6496 17.7068 17.114ZM14.5835 17.114C14.5835 16.8165 14.7016 16.5312 14.912 16.3208C15.1225 16.1103 15.4078 15.9922 15.7053 15.9922C16.0029 15.9922 16.2882 16.1103 16.4985 16.3208C16.709 16.5312 16.8272 16.8165 16.8272 17.114C16.8272 17.4116 16.709 17.6969 16.4985 17.9074C16.2882 18.1178 16.0029 18.2359 15.7053 18.2359C15.4073 18.2365 15.1214 18.1185 14.9106 17.9082C14.6997 17.6977 14.5813 17.412 14.5813 17.1141L14.5835 17.114Z" fill="#6C6C6C" stroke="#6C6C6C" stroke-width="0.5"/>
<path d="M5.28773 2.9493L4.4418 0.357788H1V1.2552H3.78215L6.87854 10.6208L5.51875 13.9191H17.707V13.0216L6.86059 13.0215L7.6616 11.0875L18.833 9.94089L20.4485 3.18726L5.28773 2.9493ZM18.1082 9.10393L7.6749 10.1742L5.58595 3.85124L19.3152 4.05767L18.1082 9.10393Z" fill="#6C6C6C" stroke="#6C6C6C" stroke-width="0.5"/>
</svg>
