<svg width="57" height="57" viewBox="0 0 57 57" fill="none" xmlns="http://www.w3.org/2000/svg">
<path d="M52.1016 0H4.89952C2.19785 0 0 2.19785 0 4.89952V52.1005C0 54.8021 2.19785 57 4.89952 57H52.1005C54.8021 57 57 54.8021 57 52.1005V4.89952C57.0004 2.19785 54.8026 0 52.1009 0H52.1016ZM55.5316 40.8269L35.4963 25.4929L28.8949 32.3669L19.4233 23.3451L1.46925 40.5693V4.89863C1.46925 3.00739 3.00817 1.46859 4.8993 1.46859H52.1003C53.9919 1.46859 55.5303 3.0075 55.5303 4.89863L55.5316 40.8269Z" fill="black" fill-opacity="0.21"/>
<path d="M51 15C51 18.3138 48.5375 21 45.5002 21C42.4624 21 40 18.3137 40 15C40 11.6863 42.4625 9 45.5002 9C48.5375 9 51 11.6863 51 15Z" fill="black" fill-opacity="0.21"/>
</svg>
