<svg width="20" height="18" viewBox="0 0 20 18" fill="none" xmlns="http://www.w3.org/2000/svg">
<path d="M18.6594 8.81316L11.2231 1.4984C10.5475 0.833865 9.45071 0.833865 8.77517 1.4984L1.33935 8.81316C1.0073 9.1398 0.90924 9.62531 1.08825 10.0512C1.26726 10.477 1.6859 10.7526 2.15628 10.7526L3.07146 10.7528V15.8642C3.07146 16.4917 3.58813 17 4.22604 17H7.69002C8.32793 17 8.8446 16.4917 8.8446 15.8642V12.4566H11.154V15.8642C11.154 16.4917 11.6707 17 12.3086 17H15.7726C16.4105 17 16.9271 16.4917 16.9271 15.8642V10.7528H17.8423C18.3099 10.7528 18.7285 10.4772 18.9104 10.0514C19.0924 9.62529 18.9915 9.13978 18.6594 8.81316ZM16.35 9.61679C16.0297 9.61679 15.7727 9.86955 15.7727 10.1847V15.8641H12.3087V12.4565C12.3087 11.829 11.7921 11.3207 11.1542 11.3207H8.84476C8.20685 11.3207 7.69018 11.829 7.69018 12.4565V15.8641H4.22599V10.1847C4.22599 9.86954 3.96906 9.61679 3.6487 9.61679L2.1534 9.61957L9.59231 2.30177C9.81743 2.08031 10.1841 2.08031 10.4092 2.30177L17.8456 9.61703L16.35 9.61679Z" fill="#6C6C6C" stroke="#6C6C6C" stroke-width="0.2"/>
</svg>
