<svg xmlns="http://www.w3.org/2000/svg" width="17" height="17" viewBox="0 0 17 17" fill="none">
<path d="M8.5 0C3.81302 0 0 3.81302 0 8.5C0 13.187 3.81302 17 8.5 17C13.187 17 17 13.187 17 8.5C17 3.81302 13.187 0 8.5 0ZM8.4922 13.3925C7.94913 13.3925 7.50898 12.9523 7.50898 12.4093C7.50898 11.8662 7.94913 11.426 8.4922 11.426C9.03527 11.426 9.47541 11.8662 9.47541 12.4093C9.47541 12.9523 9.03527 13.3925 8.4922 13.3925ZM10.6043 8.4543C10.0454 8.87029 9.4481 9.20824 9.33123 9.97426V10.4685H7.57754V9.88397C7.6552 8.75324 8.18787 8.24695 8.70753 7.84415C9.21419 7.44173 9.65582 7.14316 9.65582 6.44124C9.65582 5.64864 9.24038 5.27204 8.55202 5.27204C7.61693 5.27204 7.22714 6.03844 7.21376 6.9609H5.30419C5.34339 5.10334 6.56442 3.75226 8.4608 3.75226C10.916 3.75226 11.6958 5.25922 11.6958 6.25897C11.6958 7.51939 11.1631 8.02604 10.6043 8.4543Z" fill="#000000" />
</svg>