<svg width="16" height="15" viewBox="0 0 16 15" fill="none" xmlns="http://www.w3.org/2000/svg">
<path d="M7.3602 7.00461H8.90694C8.90694 6.00032 10.4537 5.49151 10.4537 4.22645C10.4537 2.71335 9.42706 1.9569 8.13367 1.9569C6.58694 1.9569 5.56033 3.22216 5.81367 4.48738H7.36041C7.36041 3.71784 7.61375 3.47 8.13367 3.47C8.65359 3.47 8.90694 3.71784 8.90694 4.22645C8.90694 4.9829 7.3602 5.24383 7.3602 7.00461ZM8.13347 9.78292C8.73343 9.78292 9.17347 9.35245 9.17347 8.77864C9.17347 8.19172 8.73343 7.76125 8.13347 7.76125C7.53351 7.76125 7.10686 8.19172 7.10686 8.77864C7.10686 9.35261 7.53351 9.78292 8.13347 9.78292ZM0 15V1.9565C0 0.691245 0.706612 0 2 0H14C15.2934 0 16 0.691245 16 1.9565V9.78252C16 11.0478 15.2934 11.739 14 11.739H3.33347L0 15Z" fill="#000000"/>
</svg>
