<svg width="13" height="13" viewBox="0 0 13 13" fill="none" xmlns="http://www.w3.org/2000/svg">
<path fill-rule="evenodd" clip-rule="evenodd" d="M5.5205 0.611248C5.93642 -0.203748 7.10095 -0.203751 7.51687 0.611247L8.91001 3.34111C8.93327 3.3867 8.97692 3.41841 9.02746 3.42645L12.0542 3.90783C12.9579 4.05155 13.3177 5.15908 12.6711 5.80649L10.5054 7.97502C10.4692 8.01123 10.4525 8.06254 10.4605 8.11309L10.938 11.1405C11.0806 12.0443 10.1385 12.7288 9.32293 12.3139L6.59128 10.9243C6.54566 10.9011 6.49171 10.9011 6.4461 10.9243L3.71445 12.3139C2.89892 12.7288 1.95679 12.0443 2.09935 11.1405L2.57685 8.11309C2.58482 8.06254 2.56815 8.01123 2.53199 7.97502L0.366235 5.80649C-0.280345 5.15908 0.0795107 4.05155 0.983146 3.90783L4.00991 3.42645C4.06045 3.41841 4.1041 3.3867 4.12736 3.34111L5.5205 0.611248ZM6.66128 1.04788C6.60187 0.931454 6.43551 0.931452 6.37609 1.04788L4.98295 3.77775C4.82011 4.09682 4.51456 4.31882 4.16078 4.37509L1.13402 4.85647C1.00493 4.877 0.95352 5.03522 1.04589 5.12771L3.21164 7.29624C3.46478 7.5497 3.58149 7.9089 3.52568 8.26275L3.04818 11.2901C3.02782 11.4192 3.1624 11.517 3.27891 11.4578L6.01056 10.0681C6.32984 9.9057 6.70753 9.9057 7.02681 10.0681L9.75846 11.4578C9.87497 11.517 10.0096 11.4192 9.98919 11.2901L9.51169 8.26275C9.45588 7.9089 9.57259 7.5497 9.82573 7.29624L11.9915 5.1277C12.0839 5.03522 12.0324 4.877 11.9034 4.85647L8.87659 4.37509C8.52282 4.31882 8.21726 4.09682 8.05443 3.77775L6.66128 1.04788Z" fill="#f58a15"/>
</svg>
