<svg width="13" height="13" viewBox="0 0 13 13" fill="none" xmlns="http://www.w3.org/2000/svg">
<path d="M5.9392 0.829753C6.17687 0.364041 6.84231 0.36404 7.07998 0.829753L8.47312 3.55962C8.56617 3.74195 8.74078 3.8688 8.94293 3.90096L11.9697 4.38234C12.4861 4.46446 12.6917 5.09733 12.3222 5.46728L10.1565 7.63582C10.0118 7.78065 9.94512 7.98591 9.97701 8.18811L10.4545 11.2155C10.536 11.732 9.99762 12.1231 9.5316 11.886L6.79995 10.4964C6.6175 10.4036 6.40168 10.4036 6.21923 10.4964L3.48758 11.886C3.02156 12.1231 2.48321 11.732 2.56467 11.2155L3.04217 8.18811C3.07406 7.98591 3.00737 7.78065 2.86272 7.63582L0.696966 5.46729C0.327491 5.09734 0.533124 4.46446 1.04949 4.38234L4.07625 3.90096C4.27841 3.8688 4.45301 3.74195 4.54606 3.55962L5.9392 0.829753Z" fill="#f58a15"/>
<path fill-rule="evenodd" clip-rule="evenodd" d="M5.5111 0.611248C5.92702 -0.203748 7.09155 -0.203751 7.50747 0.611247L8.90061 3.34111C8.92387 3.3867 8.96753 3.41841 9.01806 3.42645L12.0448 3.90783C12.9485 4.05155 13.3083 5.15908 12.6617 5.80649L10.496 7.97502C10.4598 8.01123 10.4431 8.06254 10.4511 8.11309L10.9286 11.1405C11.0712 12.0443 10.1291 12.7288 9.31353 12.3139L6.58188 10.9243C6.53627 10.9011 6.48231 10.9011 6.4367 10.9243L3.70505 12.3139C2.88952 12.7288 1.94739 12.0443 2.08995 11.1405L2.56745 8.11309C2.57542 8.06254 2.55875 8.01123 2.52259 7.97502L0.356836 5.80649C-0.289744 5.15908 0.0701112 4.05155 0.973746 3.90783L4.00051 3.42645C4.05105 3.41841 4.0947 3.3867 4.11796 3.34111L5.5111 0.611248ZM6.65189 1.04788C6.59247 0.931454 6.42611 0.931452 6.36669 1.04788L4.97355 3.77775C4.81071 4.09682 4.50516 4.31882 4.15138 4.37509L1.12462 4.85647C0.99553 4.877 0.94412 5.03522 1.03649 5.12771L3.20224 7.29624C3.45538 7.5497 3.57209 7.9089 3.51628 8.26275L3.03878 11.2901C3.01842 11.4192 3.153 11.517 3.26951 11.4578L6.00116 10.0681C6.32044 9.9057 6.69813 9.9057 7.01741 10.0681L9.74906 11.4578C9.86557 11.517 10.0002 11.4192 9.97979 11.2901L9.50229 8.26275C9.44648 7.9089 9.56319 7.5497 9.81633 7.29624L11.9821 5.1277C12.0745 5.03522 12.023 4.877 11.894 4.85647L8.86719 4.37509C8.51342 4.31882 8.20786 4.09682 8.04503 3.77775L6.65189 1.04788Z" fill="#f58a15"/>
</svg>
