<svg width="14" height="13" viewBox="0 0 14 13" fill="none" xmlns="http://www.w3.org/2000/svg">
<path d="M6.96641 0.0489231C3.9313 0.430964 1.54447 3.21222 1.48554 6.37552H0.292153C0.0711921 6.37552 -0.0761849 6.63529 0.0416963 6.83399L1.80969 9.76807C1.92757 9.95141 2.17803 9.95141 2.2959 9.76807L4.06389 6.83399C4.18177 6.6353 4.04919 6.37552 3.81343 6.37552H2.62005C2.69374 3.71649 4.7122 1.45483 7.29057 1.22561C10.473 0.950594 13.125 3.71654 12.8156 7.03263C12.5799 9.53881 10.6351 11.5407 8.21878 11.7699C6.84862 11.9074 5.56675 11.4643 4.5796 10.6544C4.44703 10.5474 4.24076 10.578 4.15238 10.7308L3.84293 11.2199C3.75454 11.3574 3.78404 11.5409 3.90182 11.6325C5.03632 12.5495 6.49489 13.069 8.0714 12.9926C11.2686 12.809 13.8469 10.1041 13.9943 6.78798C14.1563 2.81476 10.856 -0.440231 6.96639 0.0487812L6.96641 0.0489231Z" fill="#CA1519"/>
</svg>
