<svg width="16" height="16" viewBox="0 0 16 16" fill="none" xmlns="http://www.w3.org/2000/svg">
<path d="M0.867559 0.0649924C0.46776 -0.139111 0 0.162267 0 0.62394V5.82824C0 6.14017 0.22265 6.40406 0.521081 6.44579L10.6461 7.86225C10.6783 7.86676 10.7078 7.88321 10.7292 7.90853C10.7506 7.93387 10.7624 7.96636 10.7624 8.00001C10.7624 8.03366 10.7506 8.06617 10.7292 8.09149C10.7078 8.11683 10.6783 8.13326 10.6461 8.13777L0.521081 9.55424C0.22265 9.59599 0 9.85987 0 10.1718V15.376C0 15.8378 0.46776 16.1392 0.867559 15.935L15.8185 8.30203C15.8731 8.27424 15.9188 8.23122 15.9509 8.17784C15.983 8.12448 16 8.06287 16 8.00001C16 7.93716 15.983 7.87557 15.9509 7.82219C15.9188 7.7688 15.8731 7.7258 15.8185 7.69801L0.867559 0.0649924Z" fill="#B7B7B7"/>
</svg>
