<svg width="17" height="20" viewBox="0 0 17 20" fill="none" xmlns="http://www.w3.org/2000/svg">
<path d="M8.4046 2.31494C7.31755 2.31494 6.42172 3.21082 6.42172 4.29783V9.65458C6.0942 9.21656 5.73795 8.88154 5.32007 8.76642C4.74713 8.60858 4.23396 8.81391 3.88801 9.01432C3.47013 9.34629 3.10513 9.60449 2.95849 10.1365C2.82079 10.6387 2.92238 11.1784 3.16505 11.8029C4.3265 14.5857 5.7335 17.2836 7.46816 19.2736C7.59111 19.415 7.77646 19.5 7.96398 19.5008H13.9129C14.0532 19.5003 14.1929 19.4537 14.3054 19.37C14.9955 18.8588 15.5108 18.0302 15.944 17.0565C16.3773 16.0828 16.7038 14.9549 16.8735 13.8548C17.0432 12.7547 17.056 11.6667 16.8047 10.7703C16.5492 9.85858 15.8752 9.04266 14.8699 8.9251C14.6996 8.92018 14.5162 8.948 14.3673 8.96644C14.2378 8.71746 14.0636 8.51752 13.8715 8.38119C13.4942 8.11346 13.1216 8.03846 12.7974 8.04384C12.5647 8.04768 12.3534 8.12684 12.1502 8.23657C12.0689 8.13943 12.0033 8.01571 11.9092 7.94732C11.533 7.67406 11.1464 7.60306 10.8283 7.60306C10.6777 7.60306 10.5326 7.62596 10.3877 7.65808V4.29798C10.3877 3.21077 9.49179 2.31509 8.40478 2.31509L8.4046 2.31494ZM8.4046 3.637C8.78222 3.637 9.06563 3.9204 9.06563 4.29802V8.92494C9.06455 9.2234 9.29094 9.50728 9.58218 9.57259C9.87343 9.6379 10.1994 9.47761 10.3256 9.20727C10.566 8.89528 10.816 8.90235 11.1313 9.01454C11.2101 9.07187 11.269 9.10476 11.269 9.36572C11.268 9.66142 11.4903 9.94314 11.778 10.0111C12.0657 10.079 12.3906 9.92653 12.522 9.66172C12.6938 9.305 12.8059 9.3485 13.1073 9.46207C13.1976 9.52616 13.2519 9.55798 13.2519 9.80634C13.2536 10.0605 13.4162 10.3066 13.6493 10.408C13.8825 10.5095 14.1732 10.4604 14.3604 10.2883C14.3678 10.3029 14.6548 10.2099 14.7597 10.247C15.1693 10.3089 15.3697 10.5427 15.5377 11.1351C15.7118 11.7491 15.7229 12.6777 15.5721 13.6552C15.4213 14.6325 15.112 15.6658 14.7322 16.5195C14.3875 17.2942 13.9725 17.873 13.6305 18.1789H8.29463C7.06236 16.51 4.21893 12.0211 4.2323 10.4949C4.41089 10.2012 4.68921 10.0106 4.96911 10.0404C5.31968 10.2173 5.40682 10.399 5.61629 10.7773L6.49064 12.5261C6.6222 12.7909 6.94696 12.9433 7.23464 12.8754C7.52235 12.8075 7.74459 12.5258 7.74368 12.2301V4.29823C7.74368 3.92061 8.02709 3.6372 8.40471 3.6372L8.4046 3.637Z" fill="#013461"/>
<path d="M2.89907 0.552246C3.07182 0.554859 3.26716 0.632009 3.36735 0.744971L5.35039 2.72786C5.56418 2.96684 5.63333 3.43791 5.3776 3.6918C5.12201 3.94554 4.65078 3.92879 4.41397 3.65737L3.56007 2.80363V6.50111C3.56007 6.86613 3.26407 7.16214 2.89905 7.16214C2.53404 7.16214 2.23802 6.86614 2.23802 6.50111V2.80363L1.38413 3.65737C1.14714 3.92863 0.656724 3.97013 0.420499 3.6918C0.201032 3.43329 0.186738 2.95303 0.447702 2.72786L2.43075 0.744971C2.5706 0.603268 2.72137 0.557318 2.89902 0.552246H2.89907Z" fill="#013461"/>
</svg>
