<svg width="181" height="18" viewBox="0 0 181 18" fill="none" xmlns="http://www.w3.org/2000/svg">
<g opacity="0.8">
<path d="M22.8217 14V4.5455H26.5519C27.269 4.5455 27.8799 4.68245 28.3846 4.95637C28.8893 5.2272 29.274 5.60421 29.5387 6.0874C29.8065 6.56752 29.9404 7.12149 29.9404 7.74933C29.9404 8.37718 29.8049 8.93115 29.5341 9.41127C29.2633 9.89138 28.8709 10.2653 28.3569 10.5331C27.846 10.8008 27.2274 10.9347 26.5011 10.9347H24.1236V9.33279H26.1779C26.5626 9.33279 26.8796 9.26662 27.1289 9.13428C27.3813 8.99886 27.569 8.81266 27.6921 8.57568C27.8183 8.33563 27.8814 8.06018 27.8814 7.74933C27.8814 7.43541 27.8183 7.1615 27.6921 6.9276C27.569 6.69062 27.3813 6.5075 27.1289 6.37824C26.8766 6.2459 26.5565 6.17973 26.1687 6.17973H24.8207V14H22.8217Z" fill="white"/>
<path d="M31.2018 14V6.90914H33.1084V8.14635H33.1823C33.3115 7.70625 33.5285 7.37386 33.8332 7.14919C34.1379 6.92145 34.4887 6.80757 34.8858 6.80757C34.9842 6.80757 35.0904 6.81373 35.2043 6.82604C35.3182 6.83835 35.4182 6.85528 35.5044 6.87682V8.62185C35.412 8.59415 35.2843 8.56953 35.1212 8.54799C34.9581 8.52644 34.8088 8.51567 34.6734 8.51567C34.3841 8.51567 34.1256 8.57876 33.8978 8.70495C33.6732 8.82805 33.4947 9.0004 33.3623 9.22199C33.2331 9.44358 33.1684 9.69903 33.1684 9.98833V14H31.2018Z" fill="white"/>
<path d="M39.3949 14.1385C38.6778 14.1385 38.0577 13.9862 37.5345 13.6815C37.0143 13.3737 36.6127 12.9459 36.3296 12.3981C36.0464 11.8472 35.9048 11.2086 35.9048 10.4823C35.9048 9.74981 36.0464 9.10966 36.3296 8.56183C36.6127 8.01093 37.0143 7.58314 37.5345 7.27845C38.0577 6.97069 38.6778 6.81681 39.3949 6.81681C40.112 6.81681 40.7306 6.97069 41.2507 7.27845C41.7739 7.58314 42.1771 8.01093 42.4602 8.56183C42.7434 9.10966 42.885 9.74981 42.885 10.4823C42.885 11.2086 42.7434 11.8472 42.4602 12.3981C42.1771 12.9459 41.7739 13.3737 41.2507 13.6815C40.7306 13.9862 40.112 14.1385 39.3949 14.1385ZM39.4041 12.6151C39.7304 12.6151 40.0027 12.5228 40.2212 12.3381C40.4398 12.1504 40.6044 11.8949 40.7152 11.5718C40.8291 11.2486 40.886 10.8808 40.886 10.4684C40.886 10.056 40.8291 9.68826 40.7152 9.3651C40.6044 9.04195 40.4398 8.7865 40.2212 8.59877C40.0027 8.41103 39.7304 8.31716 39.4041 8.31716C39.0748 8.31716 38.7978 8.41103 38.5732 8.59877C38.3516 8.7865 38.1838 9.04195 38.07 9.3651C37.9592 9.68826 37.9038 10.056 37.9038 10.4684C37.9038 10.8808 37.9592 11.2486 38.07 11.5718C38.1838 11.8949 38.3516 12.1504 38.5732 12.3381C38.7978 12.5228 39.0748 12.6151 39.4041 12.6151Z" fill="white"/>
<path d="M46.7766 14.1155C46.2381 14.1155 45.7502 13.977 45.3132 13.7C44.8793 13.4199 44.5346 13.009 44.2791 12.4674C44.0268 11.9226 43.9006 11.2548 43.9006 10.4638C43.9006 9.65132 44.0314 8.97578 44.293 8.43719C44.5546 7.89552 44.9024 7.49081 45.3363 7.22306C45.7733 6.95222 46.2519 6.81681 46.772 6.81681C47.169 6.81681 47.4999 6.88451 47.7646 7.01993C48.0323 7.15227 48.2478 7.31846 48.4109 7.51851C48.5771 7.71548 48.7033 7.90937 48.7894 8.10019H48.8494V4.5455H50.8114V14H48.8725V12.8644H48.7894C48.6971 13.0614 48.5663 13.2568 48.397 13.4507C48.2308 13.6415 48.0139 13.8 47.7461 13.9262C47.4814 14.0524 47.1583 14.1155 46.7766 14.1155ZM47.3999 12.5505C47.7169 12.5505 47.9846 12.4643 48.2031 12.2919C48.4247 12.1165 48.594 11.8718 48.711 11.5579C48.831 11.244 48.891 10.8762 48.891 10.4546C48.891 10.033 48.8325 9.66671 48.7156 9.35587C48.5986 9.04503 48.4293 8.80497 48.2078 8.6357C47.9862 8.46643 47.7169 8.38179 47.3999 8.38179C47.0767 8.38179 46.8043 8.4695 46.5828 8.64493C46.3612 8.82036 46.1934 9.06349 46.0796 9.37433C45.9657 9.68518 45.9087 10.0453 45.9087 10.4546C45.9087 10.867 45.9657 11.2317 46.0796 11.5487C46.1965 11.8626 46.3642 12.1088 46.5828 12.2873C46.8043 12.4628 47.0767 12.5505 47.3999 12.5505Z" fill="white"/>
<path d="M56.9756 10.9809V6.90914H58.9422V14H57.0541V12.712H56.9802C56.8202 13.1275 56.554 13.4615 56.1816 13.7138C55.8122 13.9662 55.3614 14.0924 54.8289 14.0924C54.355 14.0924 53.938 13.9847 53.5779 13.7692C53.2178 13.5538 52.9362 13.2476 52.7331 12.8505C52.533 12.4535 52.4314 11.978 52.4284 11.4241V6.90914H54.395V11.0732C54.3981 11.4918 54.5104 11.8226 54.732 12.0657C54.9536 12.3089 55.2506 12.4304 55.623 12.4304C55.86 12.4304 56.0815 12.3766 56.2877 12.2689C56.4939 12.1581 56.6601 11.995 56.7863 11.7795C56.9156 11.5641 56.9787 11.2979 56.9756 10.9809Z" fill="white"/>
<path d="M63.7191 14.1385C62.9928 14.1385 62.368 13.9847 61.8448 13.6769C61.3247 13.366 60.9246 12.9352 60.6445 12.3843C60.3676 11.8334 60.2291 11.1994 60.2291 10.4823C60.2291 9.75596 60.3691 9.11889 60.6492 8.57107C60.9323 8.02017 61.3339 7.59083 61.8541 7.28307C62.3742 6.97223 62.9928 6.81681 63.7099 6.81681C64.3285 6.81681 64.8702 6.92914 65.3349 7.15381C65.7996 7.37848 66.1674 7.69394 66.4382 8.10019C66.7091 8.50644 66.8583 8.98347 66.886 9.53129H65.0302C64.9779 9.17736 64.8394 8.89268 64.6147 8.67725C64.3931 8.45873 64.1023 8.34948 63.7422 8.34948C63.4375 8.34948 63.1713 8.43257 62.9436 8.59877C62.7189 8.76188 62.5435 9.0004 62.4173 9.31432C62.2911 9.62824 62.228 10.0083 62.228 10.4546C62.228 10.907 62.2896 11.2917 62.4127 11.6087C62.5388 11.9257 62.7158 12.1673 62.9436 12.3335C63.1713 12.4997 63.4375 12.5828 63.7422 12.5828C63.9669 12.5828 64.1685 12.5366 64.347 12.4443C64.5285 12.352 64.6778 12.2181 64.7948 12.0427C64.9148 11.8642 64.9933 11.6503 65.0302 11.401H66.886C66.8552 11.9426 66.7075 12.4197 66.4428 12.8321C66.1812 13.2414 65.8196 13.5615 65.358 13.7923C64.8963 14.0231 64.35 14.1385 63.7191 14.1385Z" fill="white"/>
<path d="M71.9168 6.90914V8.38641H67.6466V6.90914H71.9168ZM68.616 5.21027H70.5827V11.8211C70.5827 12.0026 70.6104 12.1442 70.6658 12.2458C70.7212 12.3443 70.7981 12.4135 70.8966 12.4535C70.9981 12.4935 71.1151 12.5135 71.2474 12.5135C71.3398 12.5135 71.4321 12.5058 71.5244 12.4905C71.6168 12.472 71.6875 12.4581 71.7368 12.4489L72.0461 13.9123C71.9476 13.9431 71.8091 13.9785 71.6306 14.0185C71.4521 14.0616 71.2351 14.0878 70.9797 14.097C70.5057 14.1155 70.0902 14.0524 69.7332 13.9077C69.3793 13.7631 69.1039 13.5384 68.9069 13.2337C68.7099 12.929 68.613 12.5443 68.616 12.0796V5.21027Z" fill="white"/>
<path d="M82.5128 7.60161C82.4482 7.37694 82.3574 7.17843 82.2404 7.00608C82.1235 6.83066 81.9804 6.68293 81.8111 6.5629C81.6449 6.43979 81.4541 6.34593 81.2387 6.28129C81.0263 6.21666 80.7909 6.18435 80.5323 6.18435C80.0491 6.18435 79.6244 6.30438 79.2582 6.54443C78.895 6.78449 78.6119 7.1338 78.4088 7.59237C78.2056 8.04787 78.1041 8.60492 78.1041 9.26354C78.1041 9.92216 78.2041 10.4823 78.4041 10.9439C78.6042 11.4056 78.8873 11.758 79.2536 12.0011C79.6198 12.2412 80.0522 12.3612 80.5508 12.3612C81.0032 12.3612 81.3895 12.2812 81.7095 12.1211C82.0327 11.958 82.2789 11.7287 82.4482 11.4333C82.6205 11.1378 82.7067 10.7885 82.7067 10.3853L83.1129 10.4454H80.6754V8.94039H84.6318V10.1314C84.6318 10.9624 84.4563 11.6764 84.1055 12.2735C83.7546 12.8675 83.2714 13.326 82.6559 13.6492C82.0404 13.9693 81.3356 14.1293 80.5416 14.1293C79.6552 14.1293 78.8766 13.9339 78.2056 13.543C77.5347 13.1491 77.0115 12.5905 76.636 11.8672C76.2636 11.1409 76.0774 10.2792 76.0774 9.282C76.0774 8.51567 76.1882 7.83243 76.4098 7.23229C76.6345 6.62907 76.9484 6.11818 77.3516 5.69962C77.7547 5.28106 78.2241 4.96252 78.7596 4.74401C79.2951 4.52549 79.8753 4.41624 80.5 4.41624C81.0355 4.41624 81.5341 4.49472 81.9958 4.65168C82.4574 4.80556 82.8667 5.02407 83.2237 5.30722C83.5838 5.59036 83.8777 5.92736 84.1055 6.31823C84.3332 6.70601 84.4794 7.1338 84.544 7.60161H82.5128Z" fill="white"/>
<path d="M89.3279 14.1385C88.5985 14.1385 87.9706 13.9908 87.4444 13.6954C86.9212 13.3968 86.518 12.9752 86.2348 12.4304C85.9517 11.8826 85.8101 11.2348 85.8101 10.4869C85.8101 9.7575 85.9517 9.11735 86.2348 8.56645C86.518 8.01555 86.9165 7.58622 87.4305 7.27845C87.9475 6.97069 88.5538 6.81681 89.2494 6.81681C89.7172 6.81681 90.1527 6.89221 90.5559 7.04301C90.9621 7.19074 91.316 7.41387 91.6176 7.7124C91.9223 8.01093 92.1593 8.38641 92.3286 8.83882C92.4979 9.28816 92.5825 9.81444 92.5825 10.4177V10.9578H86.5949V9.73904H90.7313C90.7313 9.45589 90.6697 9.20506 90.5466 8.98655C90.4235 8.76804 90.2527 8.59723 90.0342 8.47412C89.8188 8.34794 89.5679 8.28485 89.2817 8.28485C88.9832 8.28485 88.7185 8.35409 88.4877 8.49259C88.2599 8.628 88.0814 8.81112 87.9522 9.04195C87.8229 9.26969 87.7567 9.5236 87.7537 9.80367V10.9624C87.7537 11.3133 87.8183 11.6164 87.9475 11.8718C88.0799 12.1273 88.2661 12.3243 88.5061 12.4628C88.7462 12.6013 89.0309 12.6705 89.3602 12.6705C89.5787 12.6705 89.7788 12.6397 89.9603 12.5782C90.1419 12.5166 90.2973 12.4243 90.4266 12.3012C90.5559 12.1781 90.6543 12.0273 90.7221 11.8488L92.5409 11.9688C92.4486 12.4058 92.2593 12.7874 91.9731 13.1137C91.69 13.4368 91.3237 13.6892 90.8744 13.8708C90.4281 14.0493 89.9126 14.1385 89.3279 14.1385Z" fill="white"/>
<path d="M95.8325 9.90061V14H93.8659V6.90914H95.7402V8.1602H95.8233C95.9802 7.7478 96.2434 7.42156 96.6127 7.18151C96.982 6.93837 97.4298 6.81681 97.9561 6.81681C98.4485 6.81681 98.8778 6.92452 99.2441 7.13996C99.6103 7.35539 99.895 7.66316 100.098 8.06325C100.301 8.46027 100.403 8.93423 100.403 9.48513V14H98.4362V9.83598C98.4393 9.40203 98.3285 9.06349 98.1038 8.82036C97.8791 8.57415 97.5698 8.45104 97.1759 8.45104C96.9112 8.45104 96.6773 8.50798 96.4742 8.62185C96.2741 8.73572 96.1172 8.90192 96.0033 9.12043C95.8925 9.33586 95.8356 9.59593 95.8325 9.90061Z" fill="white"/>
<path d="M101.953 14V6.90914H103.919V14H101.953ZM102.941 5.99507C102.648 5.99507 102.398 5.89813 102.188 5.70423C101.982 5.50726 101.879 5.27182 101.879 4.99791C101.879 4.72708 101.982 4.49472 102.188 4.30083C102.398 4.10386 102.648 4.00537 102.941 4.00537C103.233 4.00537 103.482 4.10386 103.689 4.30083C103.898 4.49472 104.003 4.72708 104.003 4.99791C104.003 5.27182 103.898 5.50726 103.689 5.70423C103.482 5.89813 103.233 5.99507 102.941 5.99507Z" fill="white"/>
<path d="M110.042 10.9809V6.90914H112.009V14H110.12V12.712H110.047C109.887 13.1275 109.62 13.4615 109.248 13.7138C108.879 13.9662 108.428 14.0924 107.895 14.0924C107.421 14.0924 107.004 13.9847 106.644 13.7692C106.284 13.5538 106.003 13.2476 105.799 12.8505C105.599 12.4535 105.498 11.978 105.495 11.4241V6.90914H107.461V11.0732C107.464 11.4918 107.577 11.8226 107.798 12.0657C108.02 12.3089 108.317 12.4304 108.689 12.4304C108.926 12.4304 109.148 12.3766 109.354 12.2689C109.56 12.1581 109.727 11.995 109.853 11.7795C109.982 11.5641 110.045 11.2979 110.042 10.9809Z" fill="white"/>
<path d="M119.482 8.93115L117.681 9.04195C117.65 8.88807 117.584 8.74957 117.483 8.62646C117.381 8.50028 117.247 8.40026 117.081 8.32639C116.918 8.24945 116.722 8.21098 116.495 8.21098C116.19 8.21098 115.933 8.27561 115.724 8.40487C115.514 8.53106 115.41 8.70033 115.41 8.91269C115.41 9.08196 115.478 9.22507 115.613 9.34202C115.748 9.45897 115.981 9.55284 116.31 9.62362L117.593 9.88215C118.283 10.0237 118.797 10.2515 119.135 10.5654C119.474 10.8793 119.643 11.2917 119.643 11.8026C119.643 12.2673 119.506 12.6751 119.232 13.026C118.961 13.3768 118.589 13.6507 118.115 13.8477C117.644 14.0416 117.101 14.1385 116.485 14.1385C115.547 14.1385 114.799 13.9431 114.242 13.5522C113.688 13.1583 113.363 12.6228 113.268 11.9457L115.202 11.8441C115.261 12.1304 115.402 12.3489 115.627 12.4997C115.851 12.6474 116.139 12.7213 116.49 12.7213C116.835 12.7213 117.112 12.6551 117.321 12.5228C117.533 12.3874 117.641 12.2135 117.644 12.0011C117.641 11.8226 117.566 11.6764 117.418 11.5625C117.27 11.4456 117.043 11.3563 116.735 11.2948L115.507 11.0501C114.814 10.9116 114.299 10.6716 113.96 10.3299C113.625 9.98833 113.457 9.55284 113.457 9.02348C113.457 8.56799 113.58 8.17559 113.826 7.84628C114.076 7.51697 114.425 7.26307 114.874 7.08456C115.327 6.90606 115.856 6.81681 116.462 6.81681C117.358 6.81681 118.063 7.00608 118.577 7.38463C119.094 7.76318 119.395 8.27869 119.482 8.93115Z" fill="white"/>
<path d="M125.881 13.9996V6.72687H126.719V9.41153H126.79C126.851 9.31684 126.937 9.1961 127.045 9.04932C127.157 8.90017 127.315 8.76759 127.521 8.65159C127.73 8.53322 128.011 8.47403 128.366 8.47403C128.826 8.47403 129.231 8.58885 129.581 8.81849C129.931 9.04813 130.205 9.37365 130.401 9.79505C130.598 10.2165 130.696 10.7136 130.696 11.2865C130.696 11.8642 130.598 12.3649 130.401 12.7887C130.205 13.2101 129.933 13.5368 129.585 13.7688C129.236 13.9984 128.835 14.1132 128.381 14.1132C128.03 14.1132 127.75 14.0552 127.539 13.9392C127.328 13.8209 127.166 13.6871 127.053 13.538C126.939 13.3864 126.851 13.261 126.79 13.1615H126.69V13.9996H125.881ZM126.705 11.2723C126.705 11.6843 126.765 12.0477 126.886 12.3625C127.006 12.675 127.183 12.9201 127.415 13.0976C127.647 13.2728 127.931 13.3604 128.267 13.3604C128.617 13.3604 128.91 13.2681 129.144 13.0834C129.381 12.8964 129.558 12.6454 129.677 12.3306C129.798 12.0133 129.858 11.6606 129.858 11.2723C129.858 10.8888 129.799 10.5432 129.68 10.2354C129.564 9.92526 129.388 9.68023 129.151 9.50031C128.917 9.31802 128.622 9.22687 128.267 9.22687C127.926 9.22687 127.64 9.31328 127.408 9.48611C127.176 9.65656 127 9.89567 126.882 10.2034C126.764 10.5088 126.705 10.8651 126.705 11.2723Z" fill="white"/>
<path d="M132.322 16.0451C132.18 16.0451 132.054 16.0332 131.942 16.0095C131.831 15.9882 131.754 15.9669 131.712 15.9456L131.925 15.207C132.128 15.2591 132.308 15.278 132.464 15.2638C132.621 15.2496 132.759 15.1798 132.88 15.0543C133.003 14.9312 133.116 14.7311 133.217 14.4541L133.374 14.028L131.357 8.54505H132.266L133.771 12.8916H133.828L135.334 8.54505H136.243L133.928 14.7951C133.823 15.0768 133.694 15.31 133.54 15.4946C133.387 15.6817 133.208 15.8201 133.004 15.9101C132.803 16.0001 132.576 16.0451 132.322 16.0451Z" fill="white"/>
<path d="M145.247 8.9996C145.169 8.76049 145.066 8.54624 144.938 8.35684C144.812 8.16508 144.662 8.00173 144.487 7.86679C144.314 7.73184 144.118 7.62886 143.897 7.55784C143.677 7.48682 143.436 7.4513 143.173 7.4513C142.742 7.4513 142.35 7.56257 141.998 7.78511C141.645 8.00765 141.364 8.33554 141.156 8.76878C140.948 9.20202 140.843 9.7335 140.843 10.3632C140.843 10.993 140.949 11.5245 141.159 11.9577C141.37 12.3909 141.655 12.7188 142.015 12.9414C142.375 13.1639 142.78 13.2752 143.23 13.2752C143.646 13.2752 144.013 13.1864 144.331 13.0088C144.65 12.8289 144.899 12.5756 145.076 12.2489C145.256 11.9198 145.346 11.5327 145.346 11.0877L145.616 11.1445H143.429V10.3632H146.199V11.1445C146.199 11.7434 146.071 12.2643 145.815 12.707C145.562 13.1497 145.211 13.493 144.764 13.7368C144.319 13.9783 143.807 14.099 143.23 14.099C142.586 14.099 142.02 13.9475 141.532 13.6445C141.047 13.3415 140.668 12.9106 140.396 12.3519C140.126 11.7932 139.991 11.1303 139.991 10.3632C139.991 9.78795 140.068 9.27067 140.222 8.81139C140.378 8.34974 140.598 7.95675 140.882 7.63241C141.167 7.30808 141.503 7.0595 141.891 6.88667C142.279 6.71385 142.707 6.62744 143.173 6.62744C143.556 6.62744 143.914 6.68544 144.245 6.80145C144.579 6.91508 144.876 7.07725 145.137 7.28795C145.399 7.49629 145.618 7.74605 145.794 8.03724C145.969 8.32607 146.09 8.64685 146.156 8.9996H145.247Z" fill="white"/>
<path d="M149.198 14.1274C148.853 14.1274 148.539 14.0623 148.257 13.9321C147.976 13.7996 147.752 13.609 147.586 13.3604C147.42 13.1094 147.338 12.8064 147.338 12.4513C147.338 12.1388 147.399 11.8855 147.522 11.6914C147.645 11.4949 147.81 11.341 148.016 11.2297C148.222 11.1184 148.449 11.0356 148.698 10.9811C148.949 10.9243 149.201 10.8793 149.454 10.8462C149.785 10.8036 150.054 10.7716 150.26 10.7503C150.468 10.7266 150.62 10.6876 150.715 10.6331C150.812 10.5787 150.86 10.484 150.86 10.349V10.3206C150.86 9.97024 150.764 9.69799 150.573 9.50386C150.383 9.30973 150.096 9.21267 149.71 9.21267C149.31 9.21267 148.996 9.30026 148.769 9.47545C148.541 9.65064 148.382 9.83767 148.289 10.0365L147.494 9.75244C147.636 9.421 147.825 9.16295 148.062 8.97829C148.301 8.79127 148.561 8.66106 148.843 8.58767C149.127 8.51191 149.407 8.47403 149.681 8.47403C149.856 8.47403 150.058 8.49534 150.285 8.53795C150.515 8.5782 150.736 8.66224 150.949 8.79008C151.164 8.91792 151.343 9.11087 151.485 9.36892C151.627 9.62697 151.698 9.97261 151.698 10.4059V13.9996H150.86V13.261H150.818C150.761 13.3793 150.666 13.506 150.534 13.6409C150.401 13.7759 150.225 13.8907 150.004 13.9854C149.784 14.0801 149.516 14.1274 149.198 14.1274ZM149.326 13.3746C149.658 13.3746 149.937 13.3095 150.164 13.1793C150.394 13.0491 150.567 12.881 150.683 12.675C150.801 12.4691 150.86 12.2524 150.86 12.0252V11.2581C150.825 11.3007 150.747 11.3398 150.626 11.3753C150.508 11.4085 150.37 11.438 150.214 11.4641C150.06 11.4878 149.91 11.5091 149.763 11.528C149.619 11.5446 149.501 11.5588 149.411 11.5706C149.194 11.599 148.99 11.6452 148.801 11.7091C148.614 11.7707 148.462 11.8642 148.346 11.9897C148.232 12.1128 148.176 12.2809 148.176 12.4939C148.176 12.7851 148.283 13.0053 148.499 13.1544C148.717 13.3012 148.992 13.3746 149.326 13.3746Z" fill="white"/>
<path d="M153.228 13.9996V8.54505H154.038V9.39733H154.109C154.222 9.10613 154.406 8.88004 154.659 8.71906C154.912 8.55571 155.217 8.47403 155.572 8.47403C155.932 8.47403 156.231 8.55571 156.47 8.71906C156.712 8.88004 156.9 9.10613 157.035 9.39733H157.092C157.231 9.1156 157.441 8.89188 157.72 8.72616C158 8.55808 158.335 8.47403 158.725 8.47403C159.213 8.47403 159.612 8.62673 159.922 8.93213C160.232 9.23516 160.387 9.70746 160.387 10.349V13.9996H159.549V10.349C159.549 9.94657 159.439 9.65893 159.219 9.48611C158.999 9.31328 158.739 9.22687 158.441 9.22687C158.058 9.22687 157.76 9.34288 157.55 9.57488C157.339 9.80452 157.234 10.0957 157.234 10.4485V13.9996H156.381V10.2638C156.381 9.95367 156.281 9.70391 156.08 9.51451C155.878 9.32275 155.619 9.22687 155.302 9.22687C155.084 9.22687 154.88 9.28488 154.691 9.40088C154.504 9.51688 154.353 9.67787 154.236 9.88383C154.123 10.0874 154.066 10.323 154.066 10.5905V13.9996H153.228Z" fill="white"/>
<path d="M163.524 14.1274C163.179 14.1274 162.865 14.0623 162.583 13.9321C162.302 13.7996 162.078 13.609 161.912 13.3604C161.747 13.1094 161.664 12.8064 161.664 12.4513C161.664 12.1388 161.725 11.8855 161.848 11.6914C161.971 11.4949 162.136 11.341 162.342 11.2297C162.548 11.1184 162.775 11.0356 163.024 10.9811C163.275 10.9243 163.527 10.8793 163.78 10.8462C164.112 10.8036 164.38 10.7716 164.586 10.7503C164.795 10.7266 164.946 10.6876 165.041 10.6331C165.138 10.5787 165.186 10.484 165.186 10.349V10.3206C165.186 9.97024 165.091 9.69799 164.899 9.50386C164.709 9.30973 164.422 9.21267 164.036 9.21267C163.636 9.21267 163.322 9.30026 163.095 9.47545C162.868 9.65064 162.708 9.83767 162.615 10.0365L161.82 9.75244C161.962 9.421 162.151 9.16295 162.388 8.97829C162.627 8.79127 162.888 8.66106 163.169 8.58767C163.453 8.51191 163.733 8.47403 164.007 8.47403C164.183 8.47403 164.384 8.49534 164.611 8.53795C164.841 8.5782 165.062 8.66224 165.275 8.79008C165.491 8.91792 165.669 9.11087 165.811 9.36892C165.953 9.62697 166.024 9.97261 166.024 10.4059V13.9996H165.186V13.261H165.144C165.087 13.3793 164.992 13.506 164.86 13.6409C164.727 13.7759 164.551 13.8907 164.331 13.9854C164.11 14.0801 163.842 14.1274 163.524 14.1274ZM163.652 13.3746C163.984 13.3746 164.263 13.3095 164.49 13.1793C164.72 13.0491 164.893 12.881 165.009 12.675C165.127 12.4691 165.186 12.2524 165.186 12.0252V11.2581C165.151 11.3007 165.073 11.3398 164.952 11.3753C164.834 11.4085 164.696 11.438 164.54 11.4641C164.386 11.4878 164.236 11.5091 164.089 11.528C163.945 11.5446 163.828 11.5588 163.738 11.5706C163.52 11.599 163.316 11.6452 163.127 11.7091C162.94 11.7707 162.788 11.8642 162.672 11.9897C162.559 12.1128 162.502 12.2809 162.502 12.4939C162.502 12.7851 162.609 13.0053 162.825 13.1544C163.043 13.3012 163.319 13.3746 163.652 13.3746Z" fill="white"/>
<path d="M168.392 6.72687V13.9996H167.554V6.72687H168.392Z" fill="white"/>
<path d="M172.143 14.1132C171.651 14.1132 171.219 13.996 170.847 13.7617C170.478 13.5273 170.189 13.1994 169.98 12.778C169.774 12.3566 169.672 11.8642 169.672 11.3007C169.672 10.7326 169.774 10.2366 169.98 9.81281C170.189 9.38904 170.478 9.05997 170.847 8.82559C171.219 8.59122 171.651 8.47403 172.143 8.47403C172.636 8.47403 173.066 8.59122 173.436 8.82559C173.807 9.05997 174.096 9.38904 174.302 9.81281C174.511 10.2366 174.615 10.7326 174.615 11.3007C174.615 11.8642 174.511 12.3566 174.302 12.778C174.096 13.1994 173.807 13.5273 173.436 13.7617C173.066 13.996 172.636 14.1132 172.143 14.1132ZM172.143 13.3604C172.517 13.3604 172.825 13.2645 173.066 13.0728C173.308 12.881 173.487 12.6289 173.603 12.3164C173.719 12.0039 173.777 11.6653 173.777 11.3007C173.777 10.9362 173.719 10.5964 173.603 10.2816C173.487 9.96669 173.308 9.7122 173.066 9.51807C172.825 9.32394 172.517 9.22687 172.143 9.22687C171.769 9.22687 171.461 9.32394 171.22 9.51807C170.978 9.7122 170.8 9.96669 170.684 10.2816C170.568 10.5964 170.51 10.9362 170.51 11.3007C170.51 11.6653 170.568 12.0039 170.684 12.3164C170.8 12.6289 170.978 12.881 171.22 13.0728C171.461 13.2645 171.769 13.3604 172.143 13.3604Z" fill="white"/>
<path d="M176.732 10.7184V13.9996H175.894V8.54505H176.704V9.39733H176.775C176.903 9.12034 177.097 8.8978 177.357 8.72971C177.617 8.55926 177.954 8.47403 178.366 8.47403C178.735 8.47403 179.058 8.54979 179.335 8.7013C179.612 8.85045 179.827 9.07772 179.981 9.38312C180.135 9.68615 180.212 10.0697 180.212 10.5337V13.9996H179.374V10.5905C179.374 10.162 179.263 9.8282 179.04 9.58909C178.818 9.34761 178.512 9.22687 178.124 9.22687C177.857 9.22687 177.617 9.28488 177.407 9.40088C177.198 9.51688 177.034 9.68615 176.913 9.90869C176.792 10.1312 176.732 10.4011 176.732 10.7184Z" fill="white"/>
<path fill-rule="evenodd" clip-rule="evenodd" d="M7.99989 10.0669C7.42763 10.0669 6.96232 9.58856 6.96232 9.00027C6.96232 8.41198 7.42763 7.93364 7.99989 7.93364C8.57215 7.93364 9.03746 8.41198 9.03746 9.00027C9.03746 9.58856 8.57215 10.0669 7.99989 10.0669ZM7.99989 6.8669C6.85537 6.8669 5.92464 7.8237 5.92464 9.00027C5.92464 10.1768 6.85537 11.1336 7.99989 11.1336C9.14441 11.1336 10.0751 10.1768 10.0751 9.00027C10.0751 7.8237 9.14441 6.8669 7.99989 6.8669ZM13.8406 12.4669C13.5174 13.0424 12.5109 13.245 11.1604 13.0333C11.3824 12.1602 11.535 11.1746 11.5988 10.0999L10.5633 10.0337C10.3459 13.678 9.06342 15.9337 7.99992 15.9337C7.35448 15.9337 6.68008 15.1417 6.18306 13.8335C7.02922 13.594 7.93663 13.234 8.87356 12.754L8.41031 11.7999C5.23273 13.428 2.69189 13.4142 2.15938 12.467C1.83617 11.8915 2.16719 10.8946 3.0216 9.79709C3.64672 10.4318 4.40105 11.06 5.27425 11.6552L5.84704 10.7656C2.88681 8.74963 1.6275 6.48017 2.15946 5.5336C2.48267 4.95814 3.48864 4.75548 4.83965 4.96662C4.61764 5.84017 4.46509 6.82577 4.40127 7.90034L5.43679 7.96653C5.65414 4.32223 6.93664 2.0668 8.00014 2.0668C8.64599 2.0668 9.32053 2.85989 9.81797 4.16926C8.97126 4.40922 8.0644 4.76604 7.12638 5.24661L7.58964 6.20075C10.768 4.57252 13.3092 4.58635 13.8408 5.53355C14.164 6.10901 13.833 7.10587 12.9786 8.20341C12.3535 7.5687 11.5992 6.94047 10.726 6.34527L10.1532 7.2349C13.1134 9.25087 14.3727 11.5203 13.8408 12.4669H13.8406ZM13.6862 8.9889C14.9194 7.45553 15.3116 6.01775 14.7394 5.00004C14.1516 3.95303 12.7037 3.60215 10.8333 3.93172C10.1584 2.06832 9.14309 1 8.00013 1C6.82456 1 5.80503 2.11363 5.14717 3.94401C3.23954 3.61232 1.83202 3.9824 1.26087 5.00004C0.673104 6.04647 1.1016 7.51098 2.31409 9.01119C1.08088 10.5446 0.68864 11.9823 1.26087 13C1.70653 13.7941 2.64716 14.1883 3.89176 14.1883C4.28706 14.1883 4.71513 14.144 5.16546 14.0646C5.8403 15.9302 6.85616 17 8.00007 17C9.17616 17 10.1962 15.8848 10.8539 14.0534C11.3027 14.1308 11.7327 14.183 12.1213 14.183C13.3819 14.1824 14.3024 13.7776 14.7391 13.0001C15.3269 11.9537 14.8984 10.4891 13.6859 8.98893" fill="white"/>
<path fill-rule="evenodd" clip-rule="evenodd" d="M13.8408 12.4667C14.3727 11.5201 13.1134 9.25068 10.1532 7.2347L10.726 6.34507C10.7814 6.38282 10.8363 6.4207 10.8907 6.45871C11.6301 6.97511 12.2807 7.51479 12.836 8.06075C12.8843 8.1082 12.9318 8.15569 12.9786 8.20322C13.0206 8.1493 13.0613 8.09562 13.1007 8.04223C13.864 7.00874 14.1482 6.08054 13.8409 5.53336C13.3192 4.60396 10.8629 4.57318 7.76822 6.11046C7.70893 6.13991 7.6494 6.16995 7.58964 6.20056L7.12639 5.24641C7.99366 4.80208 8.8343 4.46355 9.6254 4.22535C9.68993 4.20593 9.75412 4.18716 9.81798 4.16907C9.79383 4.10551 9.76927 4.04318 9.74431 3.98208C9.25512 2.78457 8.61465 2.06661 8.00015 2.06661C6.95106 2.06661 5.68886 4.26132 5.44621 7.81894C5.44288 7.86779 5.43974 7.91691 5.4368 7.96628C5.4368 7.9663 5.4368 7.96626 5.4368 7.96628L4.40128 7.90015C4.40458 7.84458 4.40812 7.78925 4.41189 7.73416C4.41266 7.72295 4.41343 7.71175 4.41422 7.70057C4.47884 6.78171 4.60881 5.93035 4.79171 5.16138C4.80731 5.0958 4.8233 5.03081 4.83966 4.96643C4.77242 4.95592 4.70604 4.94644 4.64055 4.93797C3.3902 4.77638 2.46659 4.98658 2.15947 5.5334C1.62751 6.47997 2.88681 8.74944 5.84705 10.7654L5.27426 11.655C5.21888 11.6173 5.16398 11.5794 5.10956 11.5414C4.37015 11.025 3.7195 10.4853 3.16421 9.93936C3.11595 9.89191 3.06842 9.84442 3.02161 9.79689C2.97963 9.85081 2.93893 9.90449 2.8995 9.95788C2.13626 10.9914 1.85206 11.9196 2.15938 12.4668C2.68188 13.3961 5.13789 13.4269 8.23174 11.8898C8.29103 11.8603 8.35056 11.8303 8.41031 11.7997L8.87357 12.7538C8.00734 13.1976 7.16634 13.5388 6.37565 13.777C6.31111 13.7964 6.24692 13.8152 6.18306 13.8333C6.20721 13.8968 6.23178 13.9592 6.25674 14.0203C6.74555 15.2166 7.38584 15.9335 7.99992 15.9335C9.04898 15.9335 10.3111 13.7386 10.5538 10.1812C10.5572 10.1322 10.5603 10.083 10.5633 10.0335L11.5988 10.0997C11.5988 10.0997 11.5988 10.0996 11.5988 10.0997C11.5955 10.1553 11.5919 10.2108 11.5882 10.2659C11.5874 10.277 11.5866 10.2882 11.5858 10.2993C11.5212 11.2182 11.3913 12.0695 11.2084 12.8382C11.1928 12.9038 11.1768 12.9687 11.1604 13.0331C11.2276 13.0437 11.294 13.0532 11.3595 13.0617C12.6094 13.2237 13.5337 13.0135 13.8408 12.4667ZM13.6728 12.3571C13.7669 12.1806 13.7919 11.9221 13.7107 11.5795C13.6282 11.2316 13.4403 10.8178 13.1396 10.3618C12.5387 9.45061 11.5044 8.39685 10.0406 7.40001L9.87952 7.2903L10.669 6.06417L10.8386 6.17981C11.6469 6.73075 12.356 7.31072 12.9574 7.89961C13.301 7.43035 13.5372 6.99148 13.6612 6.61061C13.8023 6.17698 13.7889 5.84922 13.6665 5.63129C13.5678 5.45546 13.3628 5.3009 13.0292 5.20056C12.6969 5.10066 12.2562 5.06096 11.7226 5.10062C10.6563 5.17986 9.25243 5.57346 7.68083 6.37856L7.49897 6.47172L6.86098 5.15767L7.03519 5.06841C7.90634 4.6221 8.75258 4.28046 9.5514 4.03878C9.32666 3.49284 9.07335 3.05961 8.81314 2.7573C8.51841 2.4149 8.23876 2.26661 8.00015 2.26661C7.8066 2.26661 7.57459 2.37016 7.32169 2.61863C7.07053 2.86537 6.81598 3.23912 6.58206 3.73517C6.11468 4.72623 5.74399 6.17497 5.63644 7.97824L5.62448 8.17874L4.18983 8.08704L4.20163 7.88829C4.26093 6.88973 4.39615 5.96537 4.59278 5.1335C4.0248 5.06192 3.53698 5.07097 3.15501 5.15072C2.72192 5.24114 2.45537 5.41497 2.33385 5.63134C2.23456 5.80801 2.2065 6.07042 2.28955 6.42059C2.37207 6.76851 2.55993 7.18227 2.86065 7.63828C3.46156 8.5495 4.49587 9.60326 5.95962 10.6001L6.12071 10.7098L5.33127 11.9359L5.16161 11.8203C4.35335 11.2694 3.64426 10.6894 3.04287 10.1005C2.69919 10.5698 2.46302 11.0086 2.33907 11.3895C2.19796 11.8231 2.21136 12.1509 2.33376 12.3688C2.43268 12.5447 2.63777 12.6992 2.97148 12.7995C3.30379 12.8995 3.74455 12.9392 4.27813 12.8995C5.34433 12.8203 6.74794 12.4267 8.31911 11.6217L8.50098 11.5285L9.13898 12.8426L8.96477 12.9318C8.09497 13.3774 7.24838 13.7217 6.44965 13.9636C6.67419 14.5089 6.92733 14.9416 7.18737 15.2435C7.48192 15.5854 7.76145 15.7335 7.99992 15.7335C8.19345 15.7335 8.42547 15.6299 8.67838 15.3814C8.92953 15.1347 9.18408 14.7609 9.41801 14.2648C9.88538 13.2737 10.2561 11.8249 10.3636 10.0216L10.3756 9.82109L11.8102 9.91278L11.7984 10.1115C11.7391 11.1102 11.6039 12.0346 11.4073 12.8661C11.975 12.9379 12.4629 12.929 12.8449 12.8493C13.2781 12.759 13.5447 12.5851 13.6662 12.3688L13.6728 12.3571ZM12.1213 14.1828C11.7327 14.1828 11.3027 14.1306 10.8539 14.0532C10.1962 15.8846 9.17617 16.9998 8.00008 16.9998C6.85617 16.9998 5.84031 15.93 5.16546 14.0644C4.71513 14.1438 4.28707 14.1881 3.89177 14.1881C2.64717 14.1881 1.70654 13.7939 1.26088 12.9999C0.688647 11.9821 1.08089 10.5444 2.31409 9.01099C1.10161 7.51079 0.67311 6.04627 1.26088 4.99984C1.83202 3.9822 3.23955 3.61212 5.14718 3.94381C5.80504 2.11344 6.82457 0.999805 8.00013 0.999805C9.14309 0.999805 10.1584 2.06812 10.8334 3.93152C12.7037 3.60195 14.1516 3.95284 14.7394 4.99984C15.3116 6.01745 14.9195 7.45503 13.6866 8.98822C13.6864 8.98838 13.6867 8.98806 13.6866 8.98822C14.899 10.4884 15.3269 11.9535 14.7391 12.9999C14.3024 13.7774 13.3819 14.1822 12.1213 14.1828ZM14.9137 4.90182C15.533 6.00325 15.1104 7.48457 13.9412 8.9886C15.0911 10.4619 15.5479 11.9685 14.9135 13.0978C14.4266 13.9647 13.4179 14.3822 12.1214 14.3828C11.7655 14.3828 11.3803 14.3409 10.9843 14.2776C10.6581 15.1389 10.2467 15.8474 9.7661 16.3513C9.25512 16.8871 8.65691 17.1998 8.00008 17.1998C7.36023 17.1998 6.77122 16.8993 6.26269 16.3703C5.78399 15.8724 5.36936 15.1656 5.03552 14.289C4.6361 14.3526 4.25222 14.3881 3.89177 14.3881C2.61297 14.3881 1.58299 13.9823 1.08655 13.0979C0.467269 11.9965 0.889869 10.5152 2.05891 9.01127C0.908949 7.5379 0.452153 6.03134 1.08647 4.90195M14.9137 4.90182C14.2781 3.76968 12.7774 3.42215 10.9633 3.70711C10.6294 2.83148 10.2149 2.12556 9.73637 1.62822C9.22808 1.09993 8.63946 0.799805 8.00013 0.799805C7.34362 0.799805 6.74568 1.11207 6.23483 1.64733C5.75429 2.15086 5.34293 2.85879 5.01672 3.71966C3.16835 3.43283 1.70588 3.79841 1.08647 4.90195M7.16233 9.00008C7.16233 9.48315 7.54327 9.86671 7.9999 9.86671C8.45652 9.86671 8.83746 9.48315 8.83746 9.00008C8.83746 8.517 8.45652 8.13345 7.9999 8.13345C7.54327 8.13345 7.16233 8.517 7.16233 9.00008ZM5.72465 9.00008C5.72465 7.71829 6.73975 6.6667 7.9999 6.6667C9.26004 6.6667 10.2751 7.71829 10.2751 9.00008C10.2751 10.2819 9.26004 11.3335 7.9999 11.3335C6.73975 11.3335 5.72465 10.2819 5.72465 9.00008ZM6.96233 9.00008C6.96233 9.58836 7.42764 10.0667 7.9999 10.0667C8.57215 10.0667 9.03747 9.58836 9.03747 9.00008C9.03747 8.41179 8.57215 7.93345 7.9999 7.93345C7.42764 7.93345 6.96233 8.41179 6.96233 9.00008ZM5.92464 9.00008C5.92464 7.8235 6.85538 6.8667 7.9999 6.8667C9.14441 6.8667 10.0751 7.8235 10.0751 9.00008C10.0751 10.1766 9.14441 11.1335 7.9999 11.1335C6.85538 11.1335 5.92464 10.1766 5.92464 9.00008Z" fill="white"/>
</g>
</svg>
